<svg width="128" height="139" viewBox="0 0 128 139" fill="none" xmlns="http://www.w3.org/2000/svg">
<path d="M102.62 91.0626C111.148 84.7023 119.628 78.3655 128 72.0212C124.625 70.2057 119.305 70.2902 118.874 66.1121C118.735 64.7473 119.62 62.9574 120.214 61.0718C121.748 56.179 123.5 50.298 124.884 46.1901C122.459 46.432 119.396 47.1835 116.203 47.7214C112.993 48.2522 109.151 49.2199 106.854 48.8136C105.116 48.5059 103.788 46.7491 103.072 45.3093C102.196 43.5454 101.828 41.2953 101.071 39.3999C97.0789 43.0357 93.0507 48.4495 89.0512 53.1893C87.9285 54.5142 85.8944 57.2407 83.4864 56.4704C81.4757 55.8315 82.3109 52.689 82.8187 50.1218C84.8672 39.7545 87.4213 27.7103 89.2736 17.9466C86.1072 19.121 83.2661 22.4092 80.1499 23.6352C77.1531 24.8119 74.92 23.7362 73.4672 21.4486C72.6416 20.1427 72.0816 18.1345 71.2437 16.1945C69.0923 11.2316 66.2752 3.95056 64.3365 0C61.0907 7.09317 57.728 14.0759 54.7648 21.4533C52.8309 23.2665 51.5097 24.9623 48.3097 23.8584C46.1029 23.0927 43.0943 20.502 41.1867 19.2596C40.4232 18.7663 39.2647 17.7329 38.9584 18.3859C41.1269 30.8411 44.0158 42.6036 45.8611 55.3808C43.1733 58.3918 40.8444 54.9414 39.181 52.9708C35.6363 48.7737 32.3716 45.2999 29.162 41.5913C28.4774 40.7951 28.0538 39.5831 26.9313 39.3999C25.5406 42.8149 25.3061 46.9863 22.2592 48.3697C19.9088 49.4407 15.6413 48.318 12.0223 47.7191C8.84384 47.1883 5.78021 46.5165 3.33649 46.1877C4.62178 50.5211 6.34267 56.696 7.78832 61.2851C8.41781 63.2867 9.43264 64.8504 9.12629 66.542C8.93957 67.5775 7.88165 68.874 7.12773 69.3861C5.20339 70.6874 1.84536 70.6264 0 72.2372C8.46565 78.4922 17.2593 84.6339 25.5933 90.8392C28.4056 92.9391 31.5171 94.8793 33.384 97.848C34.1571 103.572 30.4759 106.076 30.2677 110.106C37.7689 108.443 46.4236 106.926 54.0923 105.51C56.6032 105.044 59.7552 103.896 61.6581 106.162C61.208 117.817 60.8896 127.207 60.3179 139C62.7712 139 65.2197 139 67.6677 139C67.3904 129.126 66.7323 117.03 66.3301 105.948C68.5179 104.065 71.3493 105.028 73.896 105.507C81.952 107.025 90.3435 108.45 97.9381 110.104C97.1339 105.648 93.9387 103.525 94.6016 97.6272C96.5952 94.7568 99.8795 93.1108 102.62 91.0626Z" fill="#88D5D6"/>
<path d="M50.6686 79.5601V78.6578H57.7716V79.0974C57.7716 80.7478 58.2421 81.9741 59.183 82.7761C60.1239 83.5628 61.435 83.9561 63.1163 83.9561C64.7513 83.9561 66.0084 83.5936 66.8876 82.8687C67.7823 82.1437 68.2296 81.1643 68.2296 79.9303C68.2296 78.7889 67.8748 77.848 67.1653 77.1076C66.4557 76.3518 64.5122 75.5651 61.3347 74.7476C57.7716 73.8375 55.1803 72.6036 53.5607 71.0457C51.9411 69.4724 51.1313 67.3437 51.1313 64.6599C51.1313 61.7292 52.1956 59.4155 54.3242 57.7187C56.4528 56.022 59.291 55.1737 62.8386 55.1737C66.448 55.1737 69.3401 56.0375 71.515 57.765C73.6899 59.4772 74.7773 61.7446 74.7773 64.5673V65.354H67.7206V64.9838C67.7206 63.611 67.3118 62.5235 66.4943 61.7215C65.6922 60.9039 64.5122 60.4952 62.9543 60.4952C61.381 60.4952 60.2242 60.8114 59.4838 61.4438C58.7588 62.0762 58.3963 62.9863 58.3963 64.174C58.3963 65.2074 58.7588 66.0558 59.4838 66.719C60.2087 67.3823 62.2371 68.1227 65.5688 68.9402C68.9777 69.7731 71.4765 71.0071 73.0652 72.6421C74.6694 74.2771 75.4715 76.4983 75.4715 79.3056C75.4715 82.3751 74.3455 84.7891 72.0934 86.5475C69.8569 88.3059 66.8876 89.1851 63.1857 89.1851C59.4992 89.1851 56.4914 88.3599 54.1623 86.7094C51.8331 85.059 50.6686 82.6759 50.6686 79.5601ZM60.0853 92.5631V86.4549H66.0084V87.1259L66.2629 87.3573V92.5631H60.0853ZM60.2242 57.8113V57.2097L59.9465 56.9784V51.9345H66.1472V57.8113H60.2242Z" fill="white"/>
</svg>
