<svg width="128" height="139" viewBox="0 0 128 139" fill="none" xmlns="http://www.w3.org/2000/svg">
<path d="M102.62 91.0626C111.148 84.7023 119.628 78.3655 128 72.0212C124.625 70.2057 119.305 70.2902 118.874 66.1121C118.735 64.7473 119.62 62.9574 120.214 61.0718C121.748 56.179 123.5 50.298 124.884 46.1901C122.459 46.432 119.396 47.1835 116.203 47.7214C112.993 48.2522 109.151 49.2199 106.854 48.8136C105.116 48.5059 103.788 46.7491 103.072 45.3093C102.196 43.5454 101.828 41.2953 101.071 39.3999C97.0789 43.0357 93.0507 48.4495 89.0512 53.1893C87.9285 54.5142 85.8944 57.2407 83.4864 56.4704C81.4757 55.8315 82.3109 52.689 82.8187 50.1218C84.8672 39.7545 87.4213 27.7103 89.2736 17.9466C86.1072 19.121 83.2661 22.4092 80.1499 23.6352C77.1531 24.8119 74.92 23.7362 73.4672 21.4486C72.6416 20.1427 72.0816 18.1345 71.2437 16.1945C69.0923 11.2316 66.2752 3.95056 64.3365 0C61.0907 7.09317 57.728 14.0759 54.7648 21.4533C52.8309 23.2665 51.5097 24.9623 48.3097 23.8584C46.1029 23.0927 43.0943 20.502 41.1867 19.2596C40.4232 18.7663 39.2647 17.7329 38.9584 18.3859C41.1269 30.8411 44.0158 42.6036 45.8611 55.3808C43.1733 58.3918 40.8444 54.9414 39.181 52.9708C35.6363 48.7737 32.3716 45.2999 29.162 41.5913C28.4774 40.7951 28.0538 39.5831 26.9313 39.3999C25.5406 42.8149 25.3061 46.9863 22.2592 48.3697C19.9088 49.4407 15.6413 48.318 12.0223 47.7191C8.84384 47.1883 5.78021 46.5165 3.33649 46.1877C4.62178 50.5211 6.34267 56.696 7.78832 61.2851C8.41781 63.2867 9.43264 64.8504 9.12629 66.542C8.93957 67.5775 7.88165 68.874 7.12773 69.3861C5.20339 70.6874 1.84536 70.6264 0 72.2372C8.46565 78.4922 17.2593 84.6339 25.5933 90.8392C28.4056 92.9391 31.5171 94.8793 33.384 97.848C34.1571 103.572 30.4759 106.076 30.2677 110.106C37.7689 108.443 46.4236 106.926 54.0923 105.51C56.6032 105.044 59.7552 103.896 61.6581 106.162C61.208 117.817 60.8896 127.207 60.3179 139C62.7712 139 65.2197 139 67.6677 139C67.3904 129.126 66.7323 117.03 66.3301 105.948C68.5179 104.065 71.3493 105.028 73.896 105.507C81.952 107.025 90.3435 108.45 97.9381 110.104C97.1339 105.648 93.9387 103.525 94.6016 97.6272C96.5952 94.7568 99.8795 93.1108 102.62 91.0626Z" fill="#88D5D6"/>
<path d="M80.6429 66.9189C82.8278 66.9189 84.4058 68.7094 84.7093 69.7108L87.3797 78.5112C87.926 80.3927 85.4983 81.1817 84.9217 79.3306L82.494 71.2585H81.1587L85.1948 85.6123H81.3408V96.8101C81.3408 98.7219 78.4579 98.7219 78.4579 96.8101V85.5212H77.0013V96.7797C77.0013 98.7219 74.1184 98.7219 74.1184 96.7797V85.6123H70.2644L74.2701 71.2585H72.9349L70.5375 79.3609C69.9609 81.121 67.5332 80.3927 68.0795 78.5112L70.75 69.7108C71.0231 68.7094 72.2976 66.9189 74.5129 66.9189H80.6429Z" fill="white"/>
<path d="M77.7301 66.2513C79.4598 66.2513 80.8558 64.8554 80.8558 63.1257C80.8558 61.3959 79.4598 60 77.7301 60C76.0003 60 74.6348 61.3959 74.6348 63.1257C74.6348 64.8554 76.0003 66.2513 77.7301 66.2513Z" fill="white"/>
<path d="M54.4051 63.2951C54.4055 63.9472 54.2061 64.5848 53.8321 65.1271C53.4582 65.6695 52.9265 66.0924 52.3043 66.3422C51.6822 66.5919 50.9974 66.6575 50.3368 66.5305C49.6761 66.4035 49.0692 66.0896 48.5928 65.6286C48.1165 65.1676 47.792 64.5802 47.6604 63.9406C47.5289 63.3011 47.5962 62.6381 47.8539 62.0356C48.1116 61.4331 48.548 60.9181 49.108 60.5557C49.668 60.1934 50.3265 60 51 60C51.9028 60 52.7686 60.3471 53.4072 60.965C54.0457 61.5829 54.4046 62.421 54.4051 63.2951ZM53.7671 68.5023H48.2329C47.4914 68.5021 46.7711 68.742 46.1866 69.1837C45.6021 69.6255 45.1869 70.2437 45.007 70.9402L42.0284 82.4825C41.9887 82.6557 41.9907 82.8355 42.0342 83.0079C42.0777 83.1803 42.1615 83.3407 42.2793 83.4767C42.4223 83.6511 42.6032 83.7928 42.8092 83.8918C43.0152 83.9907 43.2412 84.0445 43.4711 84.0493C43.7228 84.0455 43.9678 83.9704 44.1758 83.8331C44.3838 83.6959 44.5457 83.5026 44.6414 83.2772L47.4157 73.8813V80.6484L45.7633 96.6448C45.7455 96.8162 45.765 96.9893 45.8206 97.153C45.8762 97.3166 45.9666 97.4671 46.086 97.5948C46.2054 97.7225 46.3511 97.8246 46.5138 97.8944C46.6765 97.9641 46.8524 98.0001 47.0303 98H47.163C47.4514 97.9999 47.7307 97.9022 47.9526 97.7238C48.1745 97.5454 48.325 97.2976 48.3781 97.0231L51 83.3952L53.6219 97.0231C53.675 97.2976 53.8255 97.5454 54.0474 97.7238C54.2693 97.9022 54.5486 97.9999 54.837 98H54.9697C55.1476 98.0001 55.3235 97.9641 55.4862 97.8944C55.6489 97.8246 55.7946 97.7225 55.914 97.5948C56.0334 97.4671 56.1238 97.3166 56.1794 97.153C56.235 96.9893 56.2545 96.8162 56.2367 96.6448L54.5843 80.6484V73.8813L57.3586 83.2772C57.4546 83.5023 57.6166 83.6952 57.8246 83.8321C58.0325 83.969 58.2774 84.044 58.5289 84.0476C58.7587 84.043 58.9846 83.9895 59.1906 83.8908C59.3965 83.7922 59.5775 83.6508 59.7207 83.4767C59.8385 83.3407 59.9223 83.1803 59.9658 83.0079C60.0093 82.8355 60.0113 82.6557 59.9716 82.4825L56.993 70.9402C56.8131 70.2437 56.3979 69.6255 55.8134 69.1837C55.2289 68.742 54.5086 68.5021 53.7671 68.5023Z" fill="white"/>
<path d="M66.2701 47.2545C66.2703 47.7007 66.1374 48.1369 65.8881 48.508C65.6388 48.8792 65.2843 49.1685 64.8696 49.3394C64.4548 49.5103 63.9983 49.5551 63.5579 49.4682C63.1174 49.3813 62.7128 49.1666 62.3952 48.8512C62.0776 48.5357 61.8613 48.1338 61.7736 47.6962C61.6859 47.2586 61.7308 46.805 61.9026 46.3928C62.0744 45.9805 62.3653 45.6282 62.7387 45.3802C63.112 45.1323 63.551 45 64 45C64.6019 45 65.1791 45.2375 65.6048 45.6603C66.0305 46.083 66.2698 46.6565 66.2701 47.2545ZM65.8447 50.8174H62.1553C61.6609 50.8172 61.1807 50.9814 60.7911 51.2836C60.4014 51.5858 60.1246 52.0089 60.0047 52.4854L58.0189 60.3827C57.9925 60.5013 57.9938 60.6243 58.0228 60.7422C58.0518 60.8602 58.1077 60.97 58.1862 61.063C58.2815 61.1823 58.4021 61.2793 58.5395 61.347C58.6768 61.4147 58.8275 61.4515 58.9807 61.4548C59.1485 61.4522 59.3119 61.4008 59.4505 61.3069C59.5892 61.213 59.6971 61.0807 59.7609 60.9265L61.6104 54.4977V59.1279L60.5089 70.0728C60.497 70.1901 60.51 70.3085 60.5471 70.4204C60.5841 70.5324 60.6444 70.6354 60.724 70.7228C60.8036 70.8101 60.9008 70.88 61.0092 70.9277C61.1176 70.9755 61.235 71.0001 61.3536 71H61.442C61.6343 70.9999 61.8205 70.9331 61.9684 70.811C62.1163 70.689 62.2166 70.5194 62.252 70.3316L64 61.0072L65.748 70.3316C65.7834 70.5194 65.8837 70.689 66.0316 70.811C66.1795 70.9331 66.3657 70.9999 66.558 71H66.6464C66.765 71.0001 66.8824 70.9755 66.9908 70.9277C67.0992 70.88 67.1964 70.8101 67.276 70.7228C67.3556 70.6354 67.4159 70.5324 67.4529 70.4204C67.49 70.3085 67.503 70.1901 67.4911 70.0728L66.3896 59.1279V54.4977L68.2391 60.9265C68.3031 61.0805 68.411 61.2125 68.5497 61.3062C68.6884 61.3999 68.8516 61.4511 69.0193 61.4536C69.1725 61.4505 69.3231 61.4139 69.4604 61.3464C69.5977 61.2788 69.7184 61.1821 69.8138 61.063C69.8923 60.97 69.9482 60.8602 69.9772 60.7422C70.0062 60.6243 70.0075 60.5013 69.9811 60.3827L67.9953 52.4854C67.8754 52.0089 67.5986 51.5858 67.2089 51.2836C66.8193 50.9814 66.3391 50.8172 65.8447 50.8174Z" fill="white"/>
</svg>
