<svg width="158" height="170" viewBox="0 0 158 170" fill="none" xmlns="http://www.w3.org/2000/svg">
<path d="M126.233 111.372C136.663 103.593 147.034 95.8427 157.273 88.0835C153.146 85.8631 146.639 85.9664 146.112 80.8566C145.942 79.1873 147.025 76.9982 147.751 74.6921C149.627 68.7081 151.77 61.5155 153.462 56.4915C150.497 56.7873 146.75 57.7065 142.845 58.3643C138.92 59.0135 134.221 60.197 131.411 59.7001C129.286 59.3238 127.661 57.1751 126.786 55.4142C125.715 53.2569 125.264 50.505 124.338 48.1869C119.456 52.6336 114.53 59.2548 109.638 65.0516C108.265 66.672 105.777 70.0067 102.832 69.0645C100.373 68.2831 101.395 64.4397 102.016 61.3001C104.521 48.6207 107.645 33.8903 109.91 21.9491C106.038 23.3854 102.563 27.4069 98.7516 28.9064C95.0864 30.3455 92.3553 29.0299 90.5785 26.232C89.5688 24.635 88.8839 22.1789 87.8592 19.8062C85.2279 13.7365 81.7826 4.83162 79.4115 0C75.4418 8.6751 71.3292 17.2152 67.7051 26.2378C65.3399 28.4555 63.724 30.5294 59.8103 29.1793C57.1114 28.2428 53.4318 25.0744 51.0988 23.5549C50.165 22.9516 48.7482 21.6877 48.3735 22.4863C51.0256 37.7193 54.5588 52.1051 56.8157 67.7319C53.5284 71.4144 50.6802 67.1945 48.6458 64.7844C44.3105 59.6512 40.3177 55.4027 36.3923 50.867C35.5551 49.8932 35.0369 48.411 33.6641 48.1869C31.9633 52.3636 31.6764 57.4652 27.95 59.1572C25.0755 60.467 19.8562 59.094 15.4302 58.3615C11.5428 57.7123 7.79589 56.8907 4.80716 56.4886C6.37909 61.7884 8.48378 69.3404 10.2518 74.953C11.0217 77.401 12.2629 79.3135 11.8882 81.3823C11.6599 82.6488 10.366 84.2343 9.44393 84.8607C7.09042 86.4522 2.98348 86.3777 0.726562 88.3477C11.0802 95.9977 21.835 103.509 32.0277 111.098C35.4672 113.667 39.2727 116.039 41.5559 119.67C42.5015 126.67 37.9993 129.733 37.7447 134.662C46.9187 132.628 57.5037 130.773 66.8826 129.04C69.9535 128.472 73.8085 127.067 76.1358 129.839C75.5853 144.093 75.1959 155.577 74.4966 170C77.4971 170 80.4917 170 83.4857 170C83.1465 157.924 82.3416 143.13 81.8497 129.577C84.5254 127.274 87.9883 128.451 91.103 129.038C100.956 130.893 111.219 132.637 120.507 134.659C119.523 129.21 115.616 126.613 116.426 119.4C118.865 115.89 122.881 113.876 126.233 111.372Z" fill="#1C9A9B"/>
<path d="M62.7239 96.965V95.7482H71.5243V96.3425C71.5054 98.361 72.0525 99.8608 73.1655 100.842C74.2785 101.804 75.8254 102.285 77.8062 102.285C79.7304 102.285 81.2113 101.851 82.2489 100.983C83.2864 100.097 83.8052 98.8987 83.8052 97.3895C83.8052 96.0124 83.3902 94.8805 82.5601 93.9938C81.7301 93.0883 79.4286 92.1262 75.6556 91.1075C71.3545 89.9379 68.2135 88.4099 66.2327 86.5234C64.2519 84.6369 63.2615 82.0336 63.2615 78.7134C63.2615 75.1102 64.5537 72.2711 67.1382 70.196C69.7227 68.1209 73.1655 67.0833 77.4666 67.0833C81.8244 67.0833 85.3238 68.1303 87.9649 70.2243C90.6059 72.2994 91.9265 75.0725 91.9265 78.5436V79.5906H83.211V79.1379C83.211 77.44 82.7299 76.1006 81.7678 75.1197C80.8246 74.1387 79.438 73.6482 77.6081 73.6482C75.7594 73.6482 74.4011 74.035 73.5334 74.8084C72.6844 75.5819 72.26 76.6855 72.26 78.1192C72.26 79.3642 72.6844 80.3924 73.5334 81.2036C74.4011 81.9959 76.8441 82.9014 80.8623 83.9201C84.9371 84.9576 87.9366 86.4668 89.8608 88.4476C91.8038 90.4284 92.7754 93.1355 92.7754 96.5689C92.7754 100.38 91.4077 103.36 88.6723 105.511C85.9558 107.642 82.3715 108.708 77.9194 108.708C73.4485 108.708 69.7981 107.708 66.9684 105.709C64.1387 103.709 62.7239 100.795 62.7239 96.965ZM74.0427 112.811V105.454H81.4282V106.246L81.7112 106.529V112.811H74.0427ZM74.1842 70.2809V69.6018L73.9012 69.3188V63.1217H81.5697V70.2809H74.1842Z" fill="white"/>
</svg>
