<svg width="110" height="93" viewBox="0 0 110 93" fill="none" xmlns="http://www.w3.org/2000/svg">
<path d="M107.217 18.8162C104.857 13.2281 100.899 8.46144 95.8399 5.11403C90.781 1.76663 84.8463 -0.0123781 78.7802 6.48281e-05C74.605 0.0221612 70.4948 1.03673 66.7889 2.96017C63.054 4.90294 59.7274 7.54561 56.9902 10.7443C56.2159 11.6351 55.4964 12.5739 54.8078 13.54C54.1226 12.5739 53.4031 11.6351 52.6288 10.7443C49.8908 7.54641 46.5644 4.90387 42.8301 2.96017C39.124 1.03722 35.0139 0.0226848 30.8387 6.48281e-05C24.7394 -0.000665853 18.7768 1.80744 13.7052 5.19579C8.63366 8.58415 4.68093 13.4005 2.34694 19.0356C0.0129487 24.6707 -0.59742 30.8714 0.593054 36.8534C1.78353 42.8355 4.72137 48.33 9.03495 52.6422C11.8238 55.4276 51.135 90.9427 54.8215 92.505C58.508 90.9427 97.8191 55.4276 100.608 52.6422C104.944 48.3012 107.889 42.7668 109.066 36.7451C110.243 30.7234 109.599 24.4876 107.217 18.8333V18.8162ZM75.3541 53.1048H61.6497V66.8092H47.9453V53.1048H34.2408V39.4003H47.9453V25.6959H61.6497V39.4003H75.3541V53.1048Z" fill="#88D5D6"/>
</svg>
