<?xml version="1.0" encoding="UTF-8"?>
<svg id="Layer_1" data-name="Layer 1" xmlns="http://www.w3.org/2000/svg" viewBox="0 0 179.91 278.85">
  <defs>
    <style>
      .cls-1 {
        fill: #fff;
        stroke: #1e3050;
        stroke-miterlimit: 10;
        stroke-width: 15px;
      }
    </style>
  </defs>
  <path class="cls-1" d="m40.48,7.5C22.29,7.5,7.5,22.29,7.5,40.48v148.42c0,45.56,36.9,82.45,82.45,82.45s82.45-36.9,82.45-82.45V40.48c0-18.19-14.79-32.98-32.98-32.98H40.48Zm49.8,225.92c-12.74,0-23.07-10.33-23.07-23.07s10.33-23.07,23.07-23.07,23.07,10.33,23.07,23.07-10.33,23.07-23.07,23.07Zm23.07-93.9c0,12.74-10.33,23.07-23.07,23.07s-23.07-10.33-23.07-23.07,10.33-23.07,23.07-23.07,23.07,10.33,23.07,23.07Zm-23.07-45.91c-12.74,0-23.07-10.33-23.07-23.07s10.33-23.07,23.07-23.07,23.07,10.33,23.07,23.07-10.33,23.07-23.07,23.07Z"/>
</svg>