<svg width="184" height="275" viewBox="0 0 184 275" fill="none" xmlns="http://www.w3.org/2000/svg">
<path d="M50.3809 61.5527C47.8564 62.1436 49.4678 62.0361 47.373 62.3047C38.4033 64.2383 45.0635 65.957 50.3809 61.5527ZM208.13 65.1514C208.774 64.7217 211.03 62.5195 203.994 60.3711C204.424 62.5732 202.544 62.3584 202.544 63.5938C207.754 68.3203 209.902 76.5381 216.562 78.2568C217.852 72.3486 210.654 69.4482 208.13 65.1514ZM45.6006 59.834C46.4062 64.6143 50.0049 54.7852 50.0586 51.2939C48.6621 52.0996 47.2656 52.9053 45.8154 53.5498C49.1992 55.2686 46.2451 57.0947 42.5928 59.834C35.1807 69.0723 49.5215 52.6367 45.6006 59.834ZM137.5 0C61.5527 0 0 61.5527 0 137.5C0 213.394 61.5527 275 137.5 275C213.447 275 275 213.394 275 137.5C275 61.5527 213.447 0 137.5 0ZM141.152 46.084L141.797 46.2988C139.219 49.6289 155.225 59.3506 143.73 60.1562C132.988 63.2178 148.242 57.3633 139.917 58.3838C144.321 52.2607 136.426 52.1533 141.152 46.084ZM75.9473 54.8926C72.0801 51.6699 59.9414 59.2969 64.1846 57.4707C74.7119 53.335 64.8828 57.9004 67.3535 62.8418C65.0977 67.5146 66.6016 58.2227 61.0156 63.7549C56.9873 64.668 47.1045 73.7988 48.3398 71.0059C48.0176 75.3564 36.5771 80.5127 35.0195 87.7637C31.2598 97.8076 34.1064 87.3877 33.4082 83.4668C28.0371 76.6455 18.2617 95.0146 21.1621 102.266C26.0498 93.6719 25.6738 101.353 22.1289 105.166C25.7275 111.772 18.8525 120.366 25.6738 125.254C28.6816 125.952 34.6973 115.156 32.0654 126.382C33.8916 116.66 37.1143 128.691 42.3242 126.006C42.6465 131.108 45.8154 128.745 46.5137 134.922C55.2148 134.277 63.1641 148.994 52.7979 151.787C54.3555 151.357 57.417 154.097 60.9619 152.002C66.9775 156.782 82.8223 157.373 83.252 169.189C72.3486 174.399 80.5664 188.687 71.1133 193.789C60.2637 192.178 67.4072 207.163 62.8418 205.444C64.668 216.24 51.8848 204.048 56.8262 210.01C65.9033 215.596 52.8516 214.468 56.9336 218.55C52.3682 217.583 59.7803 227.036 61.0156 230.527C67.5684 241.162 55.376 228.164 51.7773 224.619C48.3398 217.744 40.2295 204.585 37.9736 193.789C36.6846 178.105 24.5459 167.578 21.7529 152.271C18.96 143.73 29.4336 130.034 23.7939 125.254C18.9062 121.44 20.8936 108.389 17.9932 101.514C25.2441 70.0928 48.2861 43.6133 75.9473 27.9297C73.1006 30.0244 92.2217 22.5049 90.0195 24.3311C89.4287 25.6738 101.191 19.2285 108.281 18.2617C107.529 18.3691 89.8584 24.707 94.7461 23.8477C87.1729 27.5537 93.9941 25.459 97.7539 23.5791C90.2344 29.1113 84.4336 27.5537 75.8936 32.4414C67.2998 34.6973 69.0723 43.6133 62.9492 48.0713C66.5479 48.7158 75.5713 38.7793 80.835 35.2881C92.9199 29.4336 74.7119 45.9229 86.2061 38.833C82.3389 42.4316 83.1445 48.1787 80.7812 49.79C79.5996 49.4678 85.4541 52.583 75.9473 54.8926ZM94.7461 30.1855C93.5107 31.8506 91.792 35.4492 90.7715 33.2471C89.375 33.9453 88.8379 36.9531 86.2061 34.5361C87.7637 33.4082 89.375 30.7227 86.3135 32.3877C87.71 30.8838 100.171 26.6406 99.4727 25.0293C101.675 23.6328 101.46 22.9346 98.9355 23.7939C97.6465 23.3643 101.997 19.7119 107.798 19.2285C108.604 19.2285 108.926 19.7656 107.476 19.6045C98.7207 22.29 102.48 21.5381 108.389 19.6045C106.133 20.8936 104.575 21.2695 104.199 21.8604C110.107 19.7119 103.877 23.418 105.22 23.1494C103.555 24.0088 105.488 24.2773 102.266 25.5127C102.856 25.0293 97.002 29.0039 100.493 27.8223C97.1094 31.0449 95.6055 31.0986 94.7461 30.1855ZM99.9023 37.8662C100.01 32.71 107.422 29.4336 106.509 29.165C115.64 24.8682 103.34 29.3262 110.537 25.459C113.223 25.1904 118.916 16.5967 126.812 16.0596C135.513 13.4277 131.484 16.2207 137.93 13.75L136.641 14.8242C135.513 14.9854 136.909 16.9727 132.827 19.9805C132.397 24.6533 125.039 22.5049 128.691 27.5C126.328 24.1162 122.783 27.3926 127.241 27.7148C122.461 31.3672 111.343 32.0117 106.025 38.0811C102.588 43.0225 99.4189 41.4648 99.9023 37.8662ZM138.091 55.0537C134.438 63.8623 130.894 53.7646 137.339 52.1533C138.95 53.0127 139.595 53.2812 138.091 55.0537ZM124.341 37.4365C123.267 33.4619 124.126 35.5566 130.518 33.6768C134.922 36.8457 126.597 38.9404 124.341 37.4365ZM224.351 195.078C219.302 186.377 230.474 178.32 234.233 171.016C233.75 179.556 232.676 187.988 224.351 195.078ZM243.364 95.6592C237.886 96.0889 232.944 97.3779 228.003 94.2627C216.616 81.8018 230.098 108.335 233.857 97.4854C247.393 102.642 233.643 124.878 225.103 122.568C220.322 112.256 214.414 100.923 203.994 95.874C211.997 104.736 215.972 115.64 224.565 123.643C225.156 134.814 236.489 119.561 235.791 128.208C236.865 143.086 218.979 152.002 222.095 166.934C228.755 180.522 209.258 182.993 211.46 195.186C203.618 203.94 195.239 215.757 181.167 213.877C181.167 206.465 177.407 200.181 176.548 192.554C168.921 182.886 184.604 172.52 174.883 162.422C163.657 159.897 177.192 144.429 165.645 145.879C158.716 138.95 148.564 145.664 138.628 145.718C126.167 146.899 113.33 130.41 118.862 118.755C114.458 106.616 132.827 103.071 133.311 92.3828C142.119 85.0244 154.634 85.9375 166.558 84.2188C165.698 92.7588 174.722 92.8125 181.543 95.6592C185.356 86.4209 197.227 97.1631 205.337 91.3086C208.13 77.666 197.441 85.8838 191.318 81.5332C183.906 70.6836 207.163 75.9473 204.746 70.2539C195.723 70.2002 200.825 59.1357 194.434 65.3125C200.181 66.333 193.413 70.8447 193.574 65.6885C184.873 63.1641 193.252 75.5713 188.848 76.7529C182.134 73.96 185.303 79.9219 186.001 80.835C183.101 87.1191 179.556 71.5967 171.338 72.0264C163.174 64.5605 168.115 75.4102 175.205 77.1826C173.701 77.6123 176.064 83.7891 174.185 81.1572C168.33 73.1006 157.212 67.7295 150.605 77.6123C149.907 86.8506 131.108 89.4824 134.116 78.6865C129.712 67.5146 147.759 78.3643 146.094 69.4482C134.492 61.7676 149.263 64.2383 153.184 57.041C162.1 57.3096 153.56 49.7363 157.749 47.5342C157.319 55.752 164.57 54.1943 170.317 52.6367C168.921 47.9102 173.755 48.0713 170.801 44.1504C184.121 38.833 160.649 46.6211 165.376 34.9658C159.629 30.9912 162.959 43.7207 165.376 45.0635C165.537 48.9844 162.207 53.8184 157.642 45.6006C150.981 49.9512 151.68 41.1963 151.25 42.1094C150.498 38.7256 156.299 38.5645 156.353 32.6562C155.869 28.8965 155.977 26.9092 158.662 26.6943C158.877 27.2314 169.673 27.3926 173.486 31.8506C163.066 29.7559 171.929 33.5693 176.602 35.7178C171.606 31.7969 178.589 35.7178 174.507 31.2598C176.118 31.582 170.049 25.1367 176.279 30.7764C172.896 26.748 182.886 27.9297 176.978 24.9219C185.625 27.3389 180.522 25.1367 175.42 22.9346C161.348 14.5557 200.288 34.2676 184.39 25.5127C194.541 27.7148 162.69 17.6709 177.192 22.0752C171.66 19.6582 177.031 21.001 182.026 22.5586C173.057 19.7656 159.629 14.5557 160.166 14.3408C163.281 14.5557 166.343 15.2539 169.297 16.1133C178.481 18.8525 166.665 15.4688 169.189 15.5225C200.771 23.6328 228.433 44.7949 245.244 72.4561C249.165 76.5918 259.854 103.931 254.268 91.792C256.792 101.46 257.168 111.88 258.511 121.763C255.718 118.647 252.603 107.153 249.917 100.762C248.789 103.232 247.5 97.2705 243.364 95.6592Z" fill="white"/>
</svg>
