<svg width="128" height="128" viewBox="0 0 128 128" fill="none" xmlns="http://www.w3.org/2000/svg">
<path d="M83.0189 108.611H44.9852C36.3909 108.611 29.3994 115.603 29.3994 124.197V127.999H98.6046V124.197C98.6046 115.603 91.6129 108.611 83.0189 108.611Z" fill="#88D5D6"/>
<path d="M124.045 55.3597L109.308 24.9635H117.828V17.359H72.9944V8.99274C72.9944 4.034 68.9604 0 64.0017 0C59.043 0 55.009 4.034 55.009 8.99274V17.359H10.172V24.9632H18.6912L3.955 55.3597H0V62.6265C0 74.8562 9.94949 84.8057 22.1792 84.8057C34.409 84.8057 44.3585 74.8562 44.3585 62.6265V55.3597H40.4035L25.667 24.9635H55.009V101.006H72.9944V24.9635H102.333L87.5964 55.36H83.6414V62.6267C83.6414 74.8565 93.5909 84.8059 105.821 84.8059C118.05 84.8059 128 74.8562 128 62.6265V55.3597H124.045ZM31.9525 55.3595H12.406L22.1792 35.2002L31.9525 55.3595ZM96.0474 55.3595L105.821 35.2002L115.594 55.3595H96.0474Z" fill="#88D5D6"/>
</svg>
