<svg width="262" height="271" viewBox="0 0 262 271" fill="none" xmlns="http://www.w3.org/2000/svg">
<g opacity="0.35">
<path d="M151.846 145.809H58.1534C41.9996 145.809 27.4611 137.732 17.7688 125.617C14.538 132.886 14.538 142.578 17.7688 153.078C20.9995 163.578 27.4611 172.463 35.538 176.502C37.9611 177.309 40.3842 178.117 41.9995 178.117C51.6919 207.194 75.9226 226.578 105 226.578C134.076 226.578 158.307 207.194 168 178.117C170.423 178.117 172.038 177.309 174.461 176.502C181.73 173.271 189 164.386 192.23 153.078C195.461 142.578 195.461 132.886 192.23 125.617C182.538 137.732 168 145.809 151.846 145.809Z" fill="#1C9A9B"/>
<path d="M151.846 129.655C170.423 129.655 184.961 115.117 185.769 97.3477H24.2305C25.0382 115.117 40.3843 129.655 58.1535 129.655H151.846Z" fill="#1C9A9B"/>
<path d="M210 54.54C209.192 52.1169 207.577 50.5015 205.962 49.6938L109.038 1.2323C106.615 0.424603 104.192 0.424603 101.769 1.2323L4.84615 49.6938C2.42308 50.5015 0.807692 52.9246 0 54.54C0 56.9631 3.61067e-07 59.3861 1.61539 61.8092L8.88461 73.1169C11.3077 76.3477 13.7308 79.5784 16.9615 81.1938H193.038C196.269 78.7708 198.692 76.3477 201.115 73.1169L208.385 61.8092C210 59.3861 210 56.9631 210 54.54Z" fill="#1C9A9B"/>
</g>
<path d="M224.29 122H150.097C142.214 122 136.186 128.028 136.186 135.911V265.75C136.186 268.532 138.04 270.387 140.823 270.387H148.113C150.895 270.387 152.75 268.532 152.75 265.75V157.113C152.75 154.331 154.604 152.476 157.387 152.476H217.613C220.395 152.476 222.25 154.331 222.25 157.113V265.75C222.25 268.532 224.104 270.387 226.887 270.387H233.565C236.347 270.387 238.202 268.532 238.202 265.75V135.911C238.202 128.028 232.173 122 224.29 122ZM176.528 143.794C175.601 144.722 174.673 145.185 173.282 145.185C171.891 145.185 170.964 144.722 170.036 143.794C169.109 142.867 168.645 141.94 168.645 140.548C168.645 139.157 169.109 138.23 170.036 137.302C171.891 135.448 174.673 135.448 176.528 137.302C177.456 138.23 177.919 139.157 177.919 140.548C177.919 141.94 177.456 142.867 176.528 143.794ZM190.44 143.794C189.512 144.722 188.585 145.185 187.194 145.185C185.802 145.185 184.875 144.722 183.948 143.794C183.02 142.867 182.557 141.94 182.557 140.548C182.557 139.157 183.02 138.23 183.948 137.302C185.802 135.448 188.585 135.448 190.44 137.302C191.367 138.23 191.831 139.157 191.831 140.548C191.831 141.94 191.367 142.867 190.44 143.794ZM204.351 143.794C203.423 144.722 202.496 145.185 201.105 145.185C199.714 145.185 198.786 144.722 197.859 143.794C196.932 142.867 196.468 141.94 196.468 140.548C196.468 139.157 196.932 138.23 197.859 137.302C199.714 135.448 202.496 135.448 204.351 137.302C205.278 138.23 205.742 139.157 205.742 140.548C205.742 141.94 205.278 142.867 204.351 143.794Z" fill="#1C9A9B"/>
<path d="M256.749 191.556H247.475C244.693 191.556 242.838 193.411 242.838 196.194C242.838 198.976 244.693 200.831 247.475 200.831H256.749C259.531 200.831 261.386 198.976 261.386 196.194C261.386 193.411 259.531 191.556 256.749 191.556Z" fill="#1C9A9B"/>
<path d="M243.767 189.702C244.694 189.702 245.621 189.238 246.549 188.774L253.968 183.21C255.823 181.819 256.287 178.573 254.896 176.718C253.504 174.863 250.722 174.399 248.404 175.79L240.984 181.355C239.129 182.746 238.666 185.992 240.057 187.847C240.984 189.238 242.375 189.702 243.767 189.702Z" fill="#1C9A9B"/>
<path d="M246.549 203.149C244.694 201.758 241.448 202.222 240.057 204.077C238.666 205.931 239.129 209.177 240.984 210.569L248.404 216.133C249.331 216.597 250.259 217.06 251.186 217.06C252.577 217.06 253.968 216.597 254.896 215.206C256.287 213.351 255.823 210.105 253.968 208.714L246.549 203.149Z" fill="#1C9A9B"/>
<path d="M131.548 196.194C131.548 193.411 129.694 191.556 126.911 191.556H117.637C114.855 191.556 113 193.411 113 196.194C113 198.976 114.855 200.831 117.637 200.831H126.911C129.694 200.831 131.548 198.976 131.548 196.194Z" fill="#1C9A9B"/>
<path d="M125.984 176.254C124.13 174.863 120.884 175.327 119.492 177.181C118.101 179.036 118.565 182.282 120.42 183.673L127.839 189.238C128.767 189.702 129.694 190.165 130.621 190.165C132.013 190.165 133.404 189.702 134.331 188.311C135.722 186.456 135.259 183.21 133.404 181.819L125.984 176.254Z" fill="#1C9A9B"/>
<path d="M127.839 203.149L120.42 208.714C118.565 210.105 118.101 213.351 119.492 215.206C120.42 216.597 121.811 217.06 123.202 217.06C124.13 217.06 125.057 216.597 125.984 216.133L133.404 210.569C135.259 209.177 135.722 205.931 134.331 204.077C132.94 202.222 130.158 201.758 127.839 203.149Z" fill="#1C9A9B"/>
<path d="M206.669 196.194C202.496 195.266 198.322 194.339 194.149 194.339C198.322 192.02 201.105 187.383 201.105 182.282C201.105 174.399 195.076 168.371 187.193 168.371C179.31 168.371 173.282 174.399 173.282 182.282C173.282 187.383 176.064 192.02 180.238 194.339C176.064 194.802 171.891 195.266 167.717 196.194C165.863 196.657 164.008 198.512 164.008 200.831V233.29C164.008 236.073 165.863 237.927 168.645 237.927H173.282V265.75C173.282 268.532 175.137 270.387 177.919 270.387H196.467C199.25 270.387 201.105 268.532 201.105 265.75V237.927H205.742C208.524 237.927 210.379 236.073 210.379 233.29V200.831C210.379 198.512 208.988 196.657 206.669 196.194Z" fill="#1C9A9B"/>
</svg>
