<?xml version="1.0" encoding="UTF-8"?>
<svg id="Layer_2" data-name="Layer 2" xmlns="http://www.w3.org/2000/svg" viewBox="0 0 28.33 27">
  <defs>
    <style>
      .cls-1 {
        fill: #00b1b2;
        stroke-width: 0px;
      }
    </style>
  </defs>
  <g id="Layer_1-2" data-name="Layer 1">
    <path class="cls-1" d="m9.06,3.08c.15-.03.28-.07.34-.1.12-.07.33-.09.49-.15.15-.06.18.05.32-.16.13-.2.02-.23.22-.36.21-.13.66-.37.83-.38.17-.01.37.26.54.16.17-.1.11-.44.58-.7.47-.26,1.33-.36,1.56-.41.23-.05.3-.09.75-.11.45-.02.53.05.8-.1.27-.16.81-.06,1.2-.17.39-.12.83-.35,1.02-.35s.69.11.84.19c.15.09.6.31.88.26.28-.05.97-.3,1.11-.45.14-.15-.03-.27.23-.23.26.04.63.2.73.28.11.08.28-.31.54-.28.26.03.56.03.59.14.03.12-.07.25.13.22.16-.03.49-.06.77-.08-.18.22-.37.46-.37.57,0,.11.09.21.18.29.06.06.11.11.11.15,0,.05-.03.18-.06.3-.04.14-.07.28-.05.34,0,.02.02.06.04.12.08.25.25.79.25.84,0,.03-.12.37-.24.66-.08.2-.16.38-.18.4-.03.02-.14.09-.27.18-.27.18-.65.41-.67.48-.02.04-.05.2-.07.33-.01.09-.01.18,0,.24.03.1.18.37.27.53.02.04.04.08.06.11.03.06.18.22.34.39.18.19.37.4.4.46.01.03,0,.08,0,.14-.02.14-.05.31.15.43.15.09.45.29.67.47.14.11.25.2.25.23.01.11.53,2.24.62,2.64-.01,0-.03.01-.04.02-.04.03-.09.06-.13.09-.05.04-.09.09-.09.14,0,.05.15.3.3.56.12.2.24.4.28.49.07.15.1.61.11.89,0,.09,0,.17.01.2,0,.07,0,.22,0,.36,0,.14-.02.27,0,.33,0,.05.05.2.09.34.04.14.08.28.08.3,0,0-.05.09-.1.19-.08.14-.17.31-.17.39,0,.07.05.45.09.79.04.26.07.49.07.54,0,0-.08.01-.16.03-.1.02-.2.03-.23.09-.03.05-.09.17-.14.28-.03.08-.06.15-.06.19,0,.1.36.54.55.77.06.07.1.12.1.13h0s.04.23.07.46c.04.29.09.6.12.64.03.03.22.2.38.32.1.08.19.13.23.13.05,0,.15-.04.24-.08.05-.02.1-.04.11-.05.02,0,.31.09.57.19.21.07.4.15.42.17.02.02.11.18.22.38.15.26.32.58.43.72-.29.23-2.05,1.57-2.62,1.84-.36.17-1.02.56-1.65.92-.47.27-.92.53-1.19.68-.46.24-.88.61-1.21.9-.15.13-.28.25-.39.33-.23.18-.67.58-1,.89-.2.18-.35.33-.4.37-.08.06-.84.18-1.45.28-.3.05-.56.09-.68.12-.02-.04-.05-.06-.08-.06-.2,0-.38.09-.49.15h-.03v.02s-.22.02-.4.01c-.2,0-.39-.03-.41-.04,0,0,.04-.09.07-.17.03-.08.06-.15.06-.2,0-.04,0-.15,0-.27,0-.12,0-.23,0-.29,0-.08-.33-.29-.69-.48-.34-.18-.7-.34-.84-.36-.22-.03-.36,0-.48,0-.02,0-.05,0-.08,0-.04,0-.08-.03-.12-.08-.07-.08-.12-.2-.14-.27-.03-.11-.18-.15-.33-.2-.1-.03-.21-.07-.22-.1-.02-.03-.02-.08-.02-.15,0-.12,0-.28-.11-.48-.1-.19-4.73-3.27-8.52-5.79C2.39,16.46.25,15.03.05,14.88c0,0-.01-.01-.01-.01-.02-.05-.04-.51-.04-.97,0-.45,0-.9.03-.95.01-.03.17-.15.37-.3.35-.25.83-.56.91-.61.08-.05.32-.15.56-.23.16-.06.31-.1.4-.1s.18.01.26.02c.16.02.3.03.35-.02.02-.02.05-.08.08-.15.06-.12.14-.29.19-.3.04,0,.16-.01.32-.03.28-.02.66-.05.8-.08.23-.04.62-.37.62-.37h0s0-.02,0-.02c0,0,.13-.21.26-.41.06-.1.64-.33,1.13-.52.38-.15.71-.28.73-.35.03-.11-.09-.18-.2-.23-.04-.02-.08-.04-.1-.06,0,0,.03-.06.06-.11.04-.06.07-.12.07-.18,0-.06-.06-.11-.11-.15-.04-.03-.07-.07-.07-.09,0-.05-.01-.08-.03-.11-.02-.04-.04-.08.03-.19.05-.08.17-.04.28,0,.08.03.16.07.23.06.08,0,.19-.03.28-.06.1-.03.19-.06.24-.08.05-.03.12-.1.18-.18.08-.1.15-.21.18-.27.02-.05.41-.1.59-.12.04,0,.08-.01.1-.01.03,0,.33.04.64.09.41.06.84.13.87.06h0s.01-.1.01-.18c0-.08-.01-.16-.01-.21,0-.03.07-.09.13-.16.08-.08.16-.16.16-.23,0-.1-.16-.18-.3-.25-.07-.03-.13-.06-.15-.08-.02-.02-.04-.12-.07-.24-.02-.13-.05-.27-.11-.4-.04-.1-.12-.24-.19-.38-.1-.19-.2-.38-.22-.45-.01-.06.03-.17.07-.27.04-.08.07-.16.07-.22,0-.05,0-.13,0-.25,0-.1,0-.2,0-.24,0-.06-.05-.14-.09-.22-.03-.06-.07-.12-.09-.18-.02-.05,0-.08.04-.1.03-.03.07-.07.1-.13.04-.11-.22-.33-.49-.55h0s-.06-.05-.06-.05Z"/>
  </g>
</svg>