<?xml version="1.0" encoding="UTF-8"?>
<svg id="Layer_2" data-name="Layer 2" xmlns="http://www.w3.org/2000/svg" viewBox="0 0 39.78 27">
  <defs>
    <style>
      .cls-1 {
        fill: #00b1b2;
        stroke-width: 0px;
      }
    </style>
  </defs>
  <g id="Layer_1-2" data-name="Layer 1">
    <path class="cls-1" d="m17.14,1.07c.03.23.06.47.06.72,0,1.14-1.14,0-2.28.31-1.14.31-2.02,0-3.11-.1-1.09-.1-3.01-.93-4.2-.93s-2.25.44-3.65,1.16c-1.16.6-2.63,1.52-3.96,2.2.17.79.37,1.67.53,1.95.18.32.93,1.26,1.64,1.94.37.36.66.63.69.63.3-.08,1-.28,1.69-.39.81-.13,1.62-.13,1.98.29.22.25.38.83.56,1.52.29,1.08.67,2.49,1.04,2.51.3,0,.7-.03,1.09-.07,1.22-.11,2.47-.23,2.64.79.05.29.02.61-.02.95h0c-.03.31-.06.62-.02.79,0,.01.05.01.18-.02.28-.07.67-.18,1.09-.3,1.48-.42,3.26-.94,3.8-.31.24.28.5.64.69.99.19.34.33.68.37.96.04.26-.11.68-.28,1.2-.27.81-.66,1.96-.48,2.02h0l.16.05c.84.28,1.86.62,2.35.32.24-.15.73-.54,1.26-.95.67-.53,1.39-1.11,1.83-1.35.45-.25.8-.24,1.01.13h0c.14.26.05.63-.08,1.14h0c-.24.95-.66,2.64.17,2.9.87.27,2.18.81,3.34,1.34,1.28.58,2.41,1.17,2.62,1.4.22.24.25.59.28,1.02.02.2.03.42.07.59.06.32.19.6.56.53.92-.17,2.35-.39,3.6-.49l.37-.03c0-.52-.02-1.29-.13-1.88-.09-.47-.17-.59-.34-.83-.17-.24-.41-.58-.77-1.3-.84-1.67.71-3.65,1.32-4.42.07-.09.13-.16.15-.19.31-.44,1.12-.59,1.92-.74h0c.45-.08.89-.17,1.13-.28h0c.34-.15.86-.56,1.27-1.01h0c.29-.31.5-.61.5-.79,0-.42-.85-2.35-1.35-3.48-.19-.44-.34-.76-.38-.89h0s-.93-.41-1.85-.83c-.92-.42-1.83-.83-2.11-1.11-.48-.48-.26-1.62-.06-2.64.1-.51.19-.98.17-1.17h0c-.02-.26-.1-.53-.4-.86-.36-.4-1.01-.87-2.15-1.49-1.2-.65-1.4-.46-1.64-.24-.29.26-.61.56-1.31.62-1.39.13-1.53-.38-1.8-1.28-.08-.28-.18-.62-.39-.99-.42-.77-1.74-.72-3.11-.67-.38.02-.77.03-1.1.03-1.59,0-1.87.14-2.61.52h0l-.26.13h0c-.62.31-1.52.36-2.31.35"/>
  </g>
</svg>