<?xml version="1.0" encoding="UTF-8"?>
<svg id="Layer_2" data-name="Layer 2" xmlns="http://www.w3.org/2000/svg" viewBox="0 0 23.2 27">
  <defs>
    <style>
      .cls-1 {
        fill: #00b1b2;
        stroke-width: 0px;
      }
    </style>
  </defs>
  <g id="Layer_1-2" data-name="Layer 1">
    <path class="cls-1" d="m5.66,26.92c.36,0,.75.02,1.12.04.58.03,1.13.07,1.37-.01.51-.17,2.66-1.65,4.57-2.97,1.16-.8,2.24-1.55,2.88-1.94,1.11-.68,2.58-4.34,3.5-6.63.28-.7.52-1.28.69-1.63.57-1.2,1.49-1.31,2.34-1.42.36-.04.71-.09.84-.24.37-.42.22-2.04.13-2.96-.03-.3-.05-.55-.05-.68,0-.19-1.36.02-2.52-.13-.99-.13-1.88-.24-2.19-.44-.47-.29-.43-1.37-.19-2.65h0c.31-1.58.87-3.63,1.12-4.37h0c-.92-.49-2.06-1.11-2.62-.8-.37.2-.71.54-1.03.86-.54.54-1.03,1.04-1.75,1.11-.61.05-.99-.18-1.37-.41h0c-.21-.13-.42-.25-.6-.18-.17.06-.35,1.13-.51,2.08-.14.83-.26,1.59-.55,1.97-.34.45-1.28,1.09-2.3,1.38-.78.22-1.62.26-2.35-.08h0c-.7-.33-1.22-.85-1.77-1.4-.59-.59-1.21-1.2-2.05-1.51-.87-.32-1.77-.16-2.37.02,1.71,2.16,4,5.07,4.08,6.51.08,1.33-.17,2.49-.39,3.48-.12.57-.23,1.08-.25,1.47-.02.61.39,2.27.85,4.08h0c.32,1.27.65,2.62.88,3.8.36,1.86.46,3.03.48,3.64"/>
  </g>
</svg>