<?xml version="1.0" encoding="UTF-8"?>
<svg id="Layer_2" data-name="Layer 2" xmlns="http://www.w3.org/2000/svg" viewBox="0 0 26.21 27">
  <defs>
    <style>
      .cls-1 {
        fill: #00b1b2;
        stroke-width: 0px;
      }
    </style>
  </defs>
  <g id="Layer_1-2" data-name="Layer 1">
    <path class="cls-1" d="m16.33,3.68c-.19,0-.41-.05-.51-.05-.1,0-.2.07-.21.14,0,.08.14.18.09.2-.06.02-.15,0-.15.07,0,.07.05.11.11.12.06.02.09.04.05.07-.04.03-.15.04-.14.09,0,.04.09.32.18.33.09.01.06-.02.16-.02.1,0,.13.03.2.03s.12,0,.16-.04c.04-.03-.02-.1.04-.11.06,0,.07.06.16.06s.25-.03.29-.08c.03-.05.21-.43.27-.58.05-.14.15-.19.07-.21-.07-.02-.22-.02-.36-.04-.14-.03-.29.03-.42.02m-.09-.32c-.07.05-.1.13-.16.13-.06,0-.21.05-.24-.01-.03-.06-.05-.08.04-.09s.16,0,.25-.06c.09-.06.14,0,.12.03m-1.19.61s-.18.3-.15.32c.04.02.21-.03.26-.12.05-.09,0-.19.07-.27s-.09-.09-.18.07m.33-.29c.07.04.03.09.1.04.07-.04.11-.08.12-.11.01-.03-.07-.04-.14-.03-.07,0-.12.08-.08.1m.67-.65c-.1.02-.15.06-.17.08-.02.02-.09.1-.04.12.04.02.19-.05.23-.09.03-.04.06-.11-.01-.11m-1.09-2.33s.05-.12.07-.14c.02-.02.19.18.19.23,0,.05-.06.28,0,.28.07,0,.07-.15.09-.14.02,0,.05.06.05.16,0,.1.02.16.02.31,0,.14.06.36.1.46.04.1-.02.19.03.23.05.05.08.01.1.01.02,0,.06.11.09.09.02-.02.04-.11.06-.12.02,0,.16.14.12.16-.04.02-.2-.03-.13.04.07.07.13.06.22.08.08.02.12,0,.13.06,0,.05.06.17,0,.21-.05.03-.18.05-.16.08.01.03.16.02.15.06-.01.04-.18.18-.28.24-.09.06-.34.38-.39.42-.05.04-.12.11-.2.15-.08.04-.22.27-.31.42-.09.15-.14.34-.21.39-.07.04-.1.03-.2.02-.1,0-.42.16-.35.19s.15-.04.26-.02c.11.02,0,.15.11.15s.14-.06.21-.13c.07-.07.1-.1.26-.13.16-.03.13,0,.2-.1.07-.1.14-.15.19-.18.05-.03.03.1.06.2.03.1.05.26.11.32.06.06.06.04.15.06.1.02.09.08.18.07.08,0,.07-.13.17-.05.1.08.05.12.13.09.08-.03.19-.16.27-.17.08-.01-.01.17-.05.28-.03.1-.14.29-.06.28.09-.02.13-.16.14-.24.01-.08.03-.16.09-.2.06-.04.07-.08.17-.15.1-.07.18-.18.22-.12.04.05.1.17.11.13,0-.04-.03-.1.01-.11.04,0,.18.03.16-.03-.02-.06-.17,0-.16-.07.01-.07.1-.09.1-.13s-.07-.06-.02-.14c.06-.08.04-.1.14-.16.11-.07.35-.09.42-.09s.17.17.23.14c.07-.03.08-.09.09-.04.02.04.03.08.04.07.01-.01.06-.06.08-.08.02-.02,0,.16.01.16.02,0,.08-.1.09-.07.02.02-.07.07.02.11.09.03.11.04.15.04.04,0,.08-.09.12-.08.04.02-.01.13.04.15.05.02.09-.01.14-.01.04,0,.03.03.1.09.07.06.08,0,.12,0,.04-.01,0,.14.04.12.04-.02.09-.09.12-.05.03.04-.02.2.04.18.06-.02.12-.15.16-.14.04.01.04.03.07.05.02.03.05.03.11.04.05.01.04.06,0,.09-.04.03-.07.06-.02.07.04.01.1-.12.15-.06s-.05.14-.05.2c0,.06-.01.08-.06.09-.04,0-.21.02-.14.07.08.05.21-.03.27-.05.06-.02.02.08-.03.15-.05.07-.08.08-.07.11.01.03.05,0,.04.06-.01.06-.01.19-.06.23-.05.04-.17.15-.08.15.09,0,.29-.17.29-.25s-.03-.15,0-.21c.04-.05.19-.14.21-.12.02.01-.1.15-.1.19,0,.04-.03.09.05.07.08-.02.08-.15.18-.19.1-.04.2-.14.28-.11.08.03.39.08.5.16.11.08.13.2.31.16.18-.04.21-.11.33-.04.13.06.23.28.33.17.1-.11-.1-.17.13-.16.23,0,.26.01.45.01s.33.1.57.19c.24.1.25.12.51.3.26.18.35.3.47.39.12.1.09.1.37.28.28.18.19.19.35.26.16.07.1.13.29.11.19-.02.3-.04.46-.04s.35.11.37.15c.02.04.11.25.12.39.01.14.06.22.11.41.05.19.15.25.13.38-.02.13-.06.26-.07.33-.01.08.04.14.04.23s-.04.38-.08.48c-.04.11-.04.15-.1.24-.05.08-.14.34-.26.36s-.29,0-.34.08c-.04.08.17.07.16.15,0,.08-.2.12-.25.21-.06.09-.1.21-.17.27-.07.05-.12.02-.2.07s-.07.12-.12.17c-.05.04-.12.05-.12-.01s-.12-.07-.13-.05c0,.02.03.08.02.12-.02.04-.07.03-.07.07,0,.03.1.07.09.1-.01.03-.09,0-.14.04-.05.05.02.09-.01.13-.03.04-.08.03-.08.08s.04.03,0,.12c-.04.09-.13.19-.16.25-.03.06.01.11-.07.19-.08.07-.21.18-.25.25-.04.08-.08.17-.12.16-.04-.01,0-.14-.05-.2-.05-.07-.11-.12-.14-.1-.02.03.04.09-.06.09s-.19-.05-.19.02c0,.06.1.04.15.08.05.04.03.06,0,.12-.02.05-.13.24-.14.29,0,.04,0,.1,0,.14,0,.03-.13.05-.14.08s.2.04.21.1c.01.06-.1.16-.09.22,0,.05,0,.15.01.28.02.13.04.77.05.92,0,.14-.2.7-.19.81.01.11.09.29.08.33,0,.05-.32.39-.36.48-.04.09.01.6-.05.74-.07.14-.26.34-.29.42-.04.08.01.15-.05.17-.06.02-.15,0-.16.05-.01.05.02.12,0,.18-.01.06-.23.22-.27.28-.04.06-.15.2-.13.35s.03.26.03.32c0,.05-.39.24-.5.3-.11.06-.18.17-.18.21,0,.04-.01.07.03.1.04.03.09-.03.09.03,0,.07-.03.13-.1.14-.07,0-.34,0-.41-.03-.07-.03-.23,0-.25-.05-.02-.05.03-.14-.02-.18-.04-.04-.14.11-.15.13,0,.03.04.11,0,.13-.05.03-.29-.11-.38-.08-.09.03-.2.06-.21.1,0,.04.2.14.06.15-.14.01-.23.02-.22-.01.02-.03.07-.09.04-.12-.03-.04-.07-.13-.07-.13,0,0-.24.01-.21.12.03.11.07.09.07.15s-.05.02-.11.04c-.06.03-.23.17-.28.2-.05.04-.05.08.02.09.07.01.05.19,0,.22-.04.04-.21-.05-.2-.11.02-.05.06-.13,0-.13-.05,0-.22.03-.28.04-.06,0-.3,0-.32.09-.02.09.03.14-.05.18-.08.04-.4.2-.51.27-.11.06-.6.29-.56.35.04.06.14.04.12.09-.02.05-.09.11-.14.15-.05.03-.15.04-.17.02-.02-.02.02-.11-.02-.11-.04,0-.08.05-.13.11-.05.05-.22-.13-.2-.04.03.09.06.16.13.18.07.01.2-.02.19.02,0,.04-.2.12-.25.14-.05.02-.16.04-.09.07.07.03.14-.02.16.02s-.03.18-.05.17c-.02,0-.12-.11-.12-.06,0,.04.03.13.06.15s.03.08.04.09c0,.01.1-.14.12-.12.03.02-.05.17-.08.26-.03.09-.04.27,0,.32.04.05.13.05.14.08,0,.03-.11,0-.13.06-.02.05.01.19.01.31s0,.23-.02.33c-.02.1-.06.2-.07.22-.02.02-.05-.17-.11-.13-.05.04-.02.14.02.21.04.07.05.08.02.12-.04.04-.53.36-.6.48-.07.11,0,.18-.12.38-.11.2-.11.29-.2.39-.09.09-.3.48-.43.64-.12.16-.32.3-.44.38-.12.09-.25.27-.29.23-.04-.04-.16-.23-.04-.22.12,0,.11.07.17.02.07-.05.22-.13.27-.23.05-.09.05-.2.12-.26.07-.06.08.04.14-.05.06-.09-.03-.09.04-.18.07-.09.1.03.14-.1.04-.13-.08-.17-.02-.22.07-.05.13-.02.15-.08.02-.06-.15-.07-.22-.07-.08,0-.16-.1-.26-.09-.1,0-.11.03,0,.13.1.1,0,.04,0,.18s.04.21,0,.22c-.05.02-.11-.18-.15-.15-.04.03.08.31-.04.37-.11.05-.25.07-.28.17-.03.1.05.17-.04.2-.08.04-.17-.01-.19.1-.01.11-.02.2.04.28.06.08.05.09,0,.19-.06.1-.03.03-.16.3-.13.27-.11.29-.21.38s-.26.21-.37.33c0,0,0,0,0,.01-.06-.04-.1-.06-.1-.12,0-.05,0-.1,0-.17.01-.09.02-.18.01-.28-.01-.1-.04-.26-.07-.39-.02-.09-.05-.18-.09-.22-.02-.03-.04-.05-.05-.07-.02-.04-.04-.06-.09-.1-.03-.03-.1-.06-.16-.09-.08-.04-.16-.08-.18-.1-.01-.02-.02-.04-.03-.07-.01-.05-.03-.1-.1-.12-.02,0-.04,0-.08-.01-.12-.02-.3-.05-.32-.1-.02-.04-.08-.15-.14-.23-.02-.03-.04-.06-.06-.07-.03-.03-.06-.03-.08-.02,0,0,0,0-.01.01-.03.03-.08.09-.14.13-.03.03-.06.04-.08.04,0,0-.01-.05-.01-.1,0-.05,0-.11-.03-.14-.02-.03-.14-.15-.25-.26-.1-.1-.2-.19-.22-.19,0,0-.01,0-.03,0-.07,0-.19-.02-.21.02,0,0,0,.02-.01.03-.01.03-.03.07-.04.08-.02,0-.16-.05-.24-.09.01-.01.03-.03.04-.04.1-.09.28-.25.39-.35l.04-.04c.07-.06.21-.23.32-.36.06-.07.12-.14.15-.17.04-.04.1-.09.16-.13.07-.05.14-.1.14-.14,0-.02,0-.04-.01-.06,0-.03-.02-.05,0-.07.01-.02.05-.04.09-.05.03-.02.07-.03.1-.05.04-.03.12-.12.21-.21.08-.08.15-.17.18-.19.03-.02.09-.03.16-.05.07-.01.15-.03.21-.06.05-.03.12-.07.19-.11.07-.04.13-.08.15-.12,0,0,0-.01.01-.02.04-.07.1-.17.1-.29,0-.05,0-.09,0-.12,0-.07,0-.13-.02-.22,0-.01,0-.03,0-.05-.02-.15-.06-.39-.24-.42h-.04c-.05-.02-.07-.02-.08-.02-.02,0-.02.01-.03.02h0s0,.01-.03.02c-.04.02-.1.04-.14.04,0-.07,0-.13.02-.17,0-.04.1-.4.16-.66.03-.14.05-.26.04-.29-.01-.03-.07-.06-.15-.08-.1-.03-.23-.05-.28-.05-.02,0-.04,0-.07,0-.08,0-.19,0-.23-.03-.01,0-.04-.08-.06-.18-.04-.17-.09-.39-.1-.46v-.02c-.02-.12-.05-.34-.13-.41-.06-.06-.16-.06-.24-.07-.04,0-.07,0-.08,0-.01,0-.03-.03-.05-.07,0-.01-.01-.02-.02-.03-.03-.05-.07-.09-.12-.05-.06.03-.28.14-.33.17-.08-.01-.59-.12-.62-.18-.02-.04.04-.33.08-.56.03-.13.05-.23.05-.27,0-.07-.06-.18-.11-.29-.03-.06-.07-.12-.08-.17-.04-.1-.01-.26-.01-.28.02-.05.24-.67.24-.76,0-.04.04-.1.08-.16.03-.04.05-.08.07-.12.04-.09-.06-.15-.13-.19-.02-.01-.04-.02-.05-.03h0s-.04-.28-.04-.28v-.02s-.02,0-.02,0c0,0-.26-.15-.4-.22-.08-.04-.06-.13-.05-.2,0-.04.01-.08,0-.11,0-.03.01-.08.03-.14.02-.07.05-.14.03-.2-.03-.08-.46-.06-.8-.04-.17,0-.31.02-.37.01-.07,0-.08-.11-.07-.22,0-.06.01-.13.02-.18,0-.04.01-.08.01-.09,0-.04-.06-.1-.11-.16-.05-.05-.1-.11-.1-.12,0-.02.05-.03.09-.04.05-.01.1-.03.1-.06,0-.02,0-.3-.04-.51-.02-.12-.04-.22-.08-.26-.04-.04-.13-.09-.22-.13-.09-.05-.19-.09-.26-.11-.09-.02-.23,0-.35.01-.06,0-.11.02-.15.02-.04,0-.07-.06-.1-.13-.03-.07-.07-.14-.12-.18-.1-.08-.19-.07-.29-.07-.03,0-.07,0-.11,0-.08,0-.1-.08-.12-.15-.01-.04-.02-.08-.04-.1-.03-.04-.12-.08-.23-.11-.09-.03-.2-.05-.31-.05-.09,0-.15,0-.19,0-.07,0-.11,0-.18-.01-.07-.02-.16-.13-.25-.23-.05-.05-.09-.1-.12-.13-.03-.03-.08-.1-.13-.19-.07-.13-.14-.27-.15-.31-.01-.04,0-.21,0-.34,0-.04,0-.09,0-.12,0-.06.04-.12.07-.17.03-.05.05-.09.04-.12,0-.02-.03-.07-.05-.11-.03-.05-.06-.1-.1-.11-.04-.01-.08.02-.11.05-.02.02-.03.03-.04.04,0,0-.02-.01-.04-.03-.02-.02-.03-.04-.06-.05-.03-.01-.21,0-.37.03-.12.02-.24.05-.3.09-.06.04-.14.09-.23.15-.09.06-.19.13-.27.18-.06.04-.18.13-.31.21-.17.12-.36.25-.41.28-.05.02-.26-.02-.43-.05-.08-.01-.14-.03-.18-.03,0,0,0,0,0,0-.03-.03-.06-.03-.12-.03-.02,0-.04,0-.07,0-.04,0-.05,0-.07-.01-.02-.01-.04-.02-.1-.02-.07,0-.12.04-.17.07-.02.01-.03.02-.05.03-.02,0-.04,0-.07,0-.04-.01-.08-.04-.1-.05,0,0,0-.27,0-.46,0-.09,0-.17,0-.19,0-.02.01-.04.03-.06.03-.04.05-.08.03-.14-.01-.03,0-.07.02-.11,0-.02.01-.04.02-.06,0-.03,0-.06-.04-.06-.05,0-.2.12-.34.23-.09.08-.18.15-.18.15-.01,0-.08,0-.16,0-.14,0-.34.02-.39.02-.02,0-.02,0-.02-.01,0,0,0-.02,0-.02,0-.02,0-.03,0-.04,0-.02,0-.03-.01-.04,0-.01-.01-.02-.01-.05,0-.03-.01-.06-.03-.08-.01-.03-.03-.06-.05-.08-.02-.03-.15-.04-.29-.05-.13,0-.27-.02-.28-.03,0,0,.03-.04.07-.08.04-.05.09-.09.09-.14,0-.06-.15-.22-.27-.34-.04-.05-.08-.08-.1-.11-.04-.05-.08-.18-.11-.28-.02-.06-.03-.12-.05-.14-.02-.03-.05-.06-.09-.09-.04-.03-.07-.06-.07-.08,0,0,.03-.02.06-.04.05-.03.1-.05.09-.1,0-.03-.02-.06-.03-.08,0-.02-.01-.03-.01-.04,0,0,.02-.05.04-.09.02-.04.04-.08.06-.11.01-.02.1-.07.18-.12.1-.06.19-.12.18-.15,0-.02,0-.04-.02-.07-.01-.04-.03-.1-.03-.13,0-.02.03-.06.06-.1.03-.05.06-.1.07-.14,0-.03.02-.09.03-.16.02-.1.04-.22.05-.24.02-.03.28-.18.45-.28.08-.04.14-.08.15-.09.02-.01.05-.03.1-.04.04,0,.08-.02.13-.02.08,0,.13-.03.17-.05.01,0,.02-.01.03-.02.02,0,.09,0,.15,0,.03,0,.06,0,.08,0,.07,0,.13-.07.17-.12.01-.02.03-.03.03-.03,0,0,.03,0,.07,0,.04,0,.09,0,.12.01,0,0,0,.02.01.03,0,.03.01.07.06.07.02,0,.07.02.11.02.05,0,.1,0,.12-.05.01-.03.08-.46.16-.92.09-.56.19-1.18.19-1.22,0-.04-.01-.13-.03-.22-.02-.08-.05-.16-.07-.21h0c-.03-.05-.1-.12-.16-.18-.06-.05-.11-.1-.11-.11,0-.03.01-.13.03-.23.01-.07.02-.12.03-.13,0-.01.07-.03.14-.05.07-.02.14-.03.18-.03.04,0,.08.02.12.03.05.02.09.04.11,0,0-.02,0-.08-.03-.14-.02-.08-.06-.18-.07-.19-.02-.03-.13-.03-.24-.04-.07,0-.14,0-.14,0,0,0,0-.05-.02-.11-.01-.1-.03-.23-.03-.25,0-.01.06.01.13.01.11,0,.24,0,.34,0,.07,0,.12,0,.15,0,.04,0,.12.01.2.03.12.02.25.04.26,0h0s0-.07-.02-.11c0-.02-.01-.03-.01-.03,0,0,.02-.03.05-.05.02-.02.04-.03.05-.03,0,0,.04.05.08.1.04.05.08.1.1.11.04,0,.12-.08.18-.15.02-.03.04-.05.06-.06.02-.02.06-.04.1-.05.04,0,.08-.01.12-.02,0,.02.01.05.02.08.04.16.1.42.15.49.03.04.1.1.18.16.09.07.19.14.21.14.02,0,.08-.01.16-.03.11-.02.25-.05.31-.05.01,0,.02.02.02.04,0,.02,0,.04,0,.06,0,.03,0,.06,0,.08.01.03.03.03.06.02.04-.02.1-.1.18-.19.08-.1.16-.2.19-.21.03-.01.09-.03.15-.06.08-.04.17-.08.21-.08.05-.01.11-.09.16-.17.04-.05.07-.11.09-.12.02-.02.1-.06.18-.1.17-.08.37-.19.34-.24-.02-.04-.11-.05-.21-.06-.1-.01-.21-.02-.21-.03,0-.03,0-.05,0-.08,0-.03,0-.07,0-.12,0-.05-.03-.15-.06-.25-.05-.14-.11-.29-.13-.3-.01,0-.15-.14-.25-.25-.06-.06-.1-.11-.1-.12h0s.02-.01.04-.01c.03,0,.06,0,.08,0h0s.1.05.17.1c.06.04.12.08.15.09.04.02.09,0,.14-.01.04-.01.08-.02.1-.02.02,0,.04.03.05.05.04.04.08.08.12.06.03-.02.04-.04.04-.06,0,0,0-.02.01-.02.01,0,.08.07.15.13.06.06.12.11.15.11.04,0,.04-.05.05-.11,0-.07.01-.17.07-.19.07-.03.27-.06.45-.09.12-.02.23-.03.28-.05.07-.02.12-.07.16-.12.03-.03.05-.05.06-.05s.03,0,.05,0c.06,0,.12.01.18-.03.04-.03.11-.09.16-.14.04-.04.07-.07.08-.09h0s.01-.06.01-.15c0-.02-.02-.06-.05-.1.06-.01.14-.02.2-.03.02,0,.04,0,.06,0,.02,0,.06,0,.09.02.04.02.07.03.07.05,0,0,0,.03.01.06,0,.04,0,.08,0,.1,0,.01-.01.03-.02.06-.03.07-.06.16-.02.2.02.01.06.02.1.03.06.01.14.03.14.05,0,.02,0,.04,0,.07,0,.04-.02.08,0,.12.01.03.03.06.05.09.02.03.04.07.04.07,0,0-.02.02-.04.05-.04.05-.09.11-.09.15,0,.02-.03.13-.07.24-.03.11-.07.23-.07.26,0,.03.01.11.03.18.02.06.04.12.06.14.02.02.04.02.05.03,0,0,.02,0,.02.04,0,.04,0,.08,0,.12,0,.05-.01.1,0,.14.02.04.09.08.15.13.05.03.1.06.12.09.02.02.03.04.04.06.02.04.03.07.09.08h0c.06.02.14.03.17.07.02.03.07.04.11.03.05,0,.11-.03.14-.05.04-.03.02-.07,0-.11,0-.02-.02-.03-.02-.03.02,0,.12-.02.24-.04.18-.03.39-.06.44-.09.06-.04.09-.11.11-.15,0-.01,0-.02.01-.02,0,0,.02,0,.05-.01.04,0,.08-.01.1-.01,0,0,0,0,.01.01.02.02.05.05.12.05.06,0,.09,0,.11,0,0,0,.01,0,.01,0,.03,0,.08-.03.1-.05.03.01.06.02.1.03.05,0,.09.01.12.02.08.02.13.03.19,0,.07-.04.04-.09,0-.16-.02-.03-.04-.08-.03-.11,0-.05,0-.09.02-.12,0-.02.01-.03.03-.03.02,0,.04,0,.06.02.05.02.11.04.22.03.09,0,.15-.03.2-.06.04-.02.08-.03.12-.03.07,0,.18.1.24.15.01.01.02.02.03.03.03.02.12.08.2.1.06.02.12.03.17.02.04-.01.11-.03.18-.05.1-.03.2-.06.26-.07.05,0,.06.03.07.06.01.03.02.05.05.06.02,0,.05,0,.08,0,.03,0,.07-.02.11-.03.06-.02.12-.07.16-.11.01-.01.03-.03.04-.04.03-.02.07-.11.11-.22.05-.12.11-.25.15-.31.03-.04.07-.09.12-.16.11-.14.24-.3.25-.35.01-.04.04-.11.06-.18"/>
  </g>
</svg>