<?xml version="1.0" encoding="UTF-8"?>
<svg id="Layer_2" data-name="Layer 2" xmlns="http://www.w3.org/2000/svg" viewBox="0 0 27.12 27">
  <defs>
    <style>
      .cls-1 {
        fill: #00b1b2;
        stroke-width: 0px;
      }
    </style>
  </defs>
  <g id="Layer_1-2" data-name="Layer 1">
    <path class="cls-1" d="m.02,16.55c-.03-.07-.03-.13,0-.17.12-.18.36-.15.22-.33-.11-.15-.15.04-.22-.12.18-.08.35-.16.4-.27H.42c.03-.06.06-.18.09-.3.04-.18.07-.4.09-.51.02-.12.17-.23.26-.3.02-.01.04-.03.05-.04.06-.05.15-.12.2-.16.05.05.14.12.23.18.11.07.23.12.31.07.1-.06.25-.26.34-.37.02-.03.04-.06.05-.07s.07,0,.14.02c.1.02.21.04.28-.01h0s.03-.02.04-.04c.12-.1.36-.3.41-.28,0,0,.01.16.02.33,0,.12,0,.25.02.35.02.13.07.21.16.19.07-.01.16-.04.24-.06.11-.04.22-.08.25-.09.02-.01.07-.06.13-.12.11-.11.29-.28.47-.41.12-.09.31-.19.48-.29.24-.13.45-.25.47-.33,0-.02.06-.12.13-.24.14-.24.33-.56.33-.7h0v-.06c0-.33-.02-1.58.29-2.24.19-.4.52-1.04.83-1.58.24-.42.46-.78.58-.92.14-.16.32-.51.49-.89.18-.4.33-.84.39-1.11.04-.21.04-.43.04-.63,0-.28,0-.53.12-.7.05-.07.13-.17.22-.29.27-.35.62-.81.64-.99,0-.06.01-.11.02-.16.02-.14.03-.25,0-.32-.03-.06-.12-.15-.18-.2,0-.08-.03-.3-.04-.51,0-.21,0-.42.03-.45.04-.03.11-.04.17-.05.11-.01.2-.03.26-.12.02-.03.04-.09.07-.15.09-.18.22-.47.34-.57l.03-.03c.16-.13.38-.31.59-.25.12.03.23.07.31.1.05.02.08.04.08.05,0,.07.03.14.07.21.01.03.03.06.05.09.03.06.13.16.25.26.12.09.26.18.39.23.13.06.47.17.79.26.29.08.56.15.64.15.05,0,.14,0,.25-.01.23-.01.53-.03.7,0,.08.01.17.03.25.04.12.02.24.04.32.04.1,0,.13-.06.18-.14.07-.11.17-.28.26-.43.09-.17.18-.32.2-.34,0,0,.13.07.28.14.21.1.43.2.54.16.09-.04.42-.18.7-.32.16-.08.31-.16.38-.21.09-.07.16-.14.23-.21.06-.06.11-.12.16-.14,0,0,.05.06.1.13.1.12.22.27.38.27.13,0,.31,0,.46-.05.12-.03.21-.09.24-.17.02-.05.03-.1.04-.14.02-.09.04-.18.1-.21.03-.02.12,0,.22.02.16.04.34.11.42.15.12.07.22,0,.32-.05.05-.03.1-.06.12-.05.03.02.07.06.12.1.14.12.31.28.46.26h.03c.16-.03.35-.06.44-.14.03-.02.06-.05.09-.09.06-.07.13-.14.16-.12.1.04.43.18.48.2.02.04.04.08.05.1.06.08.14.14.22.19.06.04.12.08.15.12.03.04.04.08.04.13.01.07.02.14.09.2.05.04.2.11.36.19.2.09.41.17.46.18.07.01.16-.04.26-.1.06-.04.12-.07.15-.08.02,0,.13.02.25.06.24.06.53.13.62.08l.07-.04c.09-.06.21-.13.25-.18.02-.03.22-.08.37-.09.04,0,.07,0,.1,0,.01,0,.03,0,.03,0,0,.04,0,.09-.02.14-.02.09-.04.18.02.26.04.06.17.18.29.28.1.08.21.15.26.16.05,0,.19.05.31.1.08.04.15.07.17.09,0,0,0,.04-.01.07-.02.09-.05.19.07.27.06.04.12.07.19.1.09.04.17.07.17.1,0,.03-.02.11-.06.2-.04.1-.08.21-.09.31,0,.1.01.22.04.35.03.13.05.25.03.3,0,.02-.02.04-.03.07-.05.14-.11.29,0,.37.03.02.1.05.18.08.17.06.41.15.41.2h0s0,.01,0,.01c0,.12,0,.26-.26.5-.1.09-.27.23-.47.39-.41.33-.91.74-.99.9-.07.14-.11.41-.14.64-.02.15-.04.28-.06.32-.04.08-.08.23-.13.41-.03.11-.06.23-.1.36-.05.16-.1.34-.14.52-.04.18-.06.35-.05.5,0,.09,0,.16,0,.23,0,.09,0,.16,0,.22-.07.06-.17.14-.26.22-.12.11-.23.23-.26.31-.03.09-.04.25-.05.41,0,.11-.01.22-.02.27-.01.05-.13.14-.23.23-.1.08-.18.15-.19.21,0,.05.09.17.2.31.18.22.42.53.42.64,0,.12-.02.24-.04.34-.01.07-.03.13-.03.18,0,.09.04.28.1.48.03.14.07.28.1.41.04.22.05.34.05.4-.03.02-.06.04-.07.09-.02.07-.05.27-.05.45,0,.12,0,.23.04.3.03.06.08.19.14.35.09.26.2.56.22.63.02.05-.03.31-.06.52-.03.16-.05.29-.03.32,0,0,0,.03.02.07.05.16.14.48.23.52.04.02.15.07.26.13h0c.1.06.21.12.23.16.02.03.11.22.24.49.17.36.4.84.6,1.24-.44.06-2.44.33-2.47.5-.02.09,0,.18.01.27,0,.05.02.11.02.16,0,.04-.26.23-.5.4-.23.16-.44.31-.44.39,0,.09.05.15.14.19.07.03.16.05.24.07.06.02.12.19.17.31.03.08.05.15.09.18.02.01-.12.2-.21.36-.05.1-.09.18-.11.22-.03.08.03.23.08.38.04.11.08.22.08.26,0,.05-.08.36-.15.67-.08.33-.16.68-.18.78-.01.12.01.22.07.31.05.08.12.16.19.23.13.13.31.13.43.13.03,0,.05,0,.06,0,0,0,.05.07.1.16.08.15.16.34.18.41.02.08.11.12.22.14.14.03.34.02.39,0,.07-.01.11-.07.13-.15.02-.08.03-.19.02-.26,0-.02.04-.04.1-.06.07-.03.16-.05.23-.06h0s.02.1.03.2c.01.13.02.29.02.47,0,.5-.04,1.09-.1,1.14-.03.03-.11-.03-.18-.1-.08-.07-.16-.14-.25-.14-.09,0-.17.07-.24.14-.06.06-.13.12-.17.1-.08-.03-.55-.62-.87-1.02-.18-.22-.31-.39-.34-.4h0l-.06-.02c-.19-.06-.77-.24-.98-.33-.16-.07-.23-.32-.29-.51-.02-.07-.04-.13-.06-.18-.02-.04-.05-.08-.08-.12-.05-.06-.12-.11-.19-.13-.08-.03-.15-.03-.22,0-.02.01-.04.02-.06.04-.06.06-.12.16-.18.26-.07.11-.13.21-.14.21-.04,0-.36-.05-.72-.11-.43-.07-.91-.15-1.05-.18-.17-.04-.2-.12-.22-.18h0s-.01-.03-.02-.05c0-.01-.01-.08-.01-.16,0-.14-.02-.3-.06-.38-.06-.1-.35,0-.66.09-.28.09-.58.18-.62.15-.04-.03-.02-.08,0-.13.02-.06.05-.12.03-.18h0s0,0,0,0c-.02-.07-.16-.18-.31-.27h0c-.15-.09-.31-.15-.38-.13h0s0,0,0,0c-.05.01-.12.05-.2.09-.1.04-.21.09-.28.11-.07.02-.53.05-.95.08-.32.02-.62.04-.73.05-.2.03-.27.11-.34.19-.01.01-.03.03-.04.04-.03-.1-.02-.34-.02-.43h0v-.03h0s.03-.07.07-.14h0c.05-.1.12-.22.12-.31,0-.11-.09-.53-.15-.79-.03-.11-.04-.19-.04-.2,0-.06-.14-.18-.27-.3-.09-.08-.18-.16-.18-.17,0-.02-.01-.15-.01-.31,0-.17,0-.35.01-.43,0-.07.02-.32.04-.58.01-.27.03-.54.02-.58,0-.06-.07-.18-.14-.29-.05-.08-.09-.16-.09-.17,0-.02.01-.08.04-.14.03-.1.06-.21.06-.29h0s0-.02,0-.02h0c0-.08-.03-.23-.07-.35-.04-.15-.11-.27-.19-.27h0s-.04,0-.07,0c-.28.02-1.27.09-1.43,0-.07-.04-.02-.18.02-.28.01-.03.02-.06.03-.09.02-.08.01-.13-.06-.15-.07-.02-.25.02-.44.06-.11.03-.22.05-.31.06-.03,0-.07,0-.1.01h-.15c-.06,0-.11,0-.17,0-.08,0-.16,0-.25,0-.18,0-.29.47-.39.89-.07.29-.13.55-.16.57-.07.03-.33-.01-.58-.05-.22-.03-.44-.07-.53-.05-.13.02-.27.06-.42.09-.07.02-.14.03-.21.05-.1.02-.24.03-.37.02-.12,0-.23-.02-.28-.05-.06-.03-.15-.16-.24-.29-.07-.11-.15-.22-.23-.3-.07-.08-.19-.25-.3-.44-.16-.27-.32-.56-.35-.64-.01-.04-.03-.15-.05-.29-.04-.31-.09-.73-.22-.89-.17-.21-.55-.2-.8-.2-.02,0-.05,0-.09,0-.13,0-.66,0-1.14.02-.37,0-.7.01-.79.02-.09,0-.41,0-.78,0-.58,0-1.29-.01-1.42,0-.1.01-.34.11-.6.21-.19.08-.39.17-.54.24"/>
  </g>
</svg>