<?xml version="1.0" encoding="UTF-8"?>
<svg id="Layer_2" data-name="Layer 2" xmlns="http://www.w3.org/2000/svg" viewBox="0 0 25.59 27">
  <defs>
    <style>
      .cls-1 {
        fill: #00b1b2;
        stroke-width: 0px;
      }
    </style>
  </defs>
  <g id="Layer_1-2" data-name="Layer 1">
    <path class="cls-1" d="m23.93,24.24c-.26-.09-.45-.16-.48-.2-.08-.1-.13-.83-.63-.86-.5-.03-.41.35-.67.57-.26.22-1.44.03-1.54-.22-.1-.25-.35-.92-.63-.8-.28.12-.37.5-.85.47-.48-.03-1.54-.14-2.17.01-.63.16-.62.26-1.33.36-.71.09-1.63-.34-2.01-.14s.05.36-.56.49c-.61.12-2.21.38-2.63.53-.42.14-.8.48-1.28.62-.49.14-2.15.65-2.49.81-.25.12-1.54.76-2.33,1.12-.1-.58-.19-1.27-.13-1.64.04-.21.11-.4.2-.61.15-.37.31-.77.32-1.38,0-.19.02-.4.03-.6.05-.76.1-1.45-.33-1.88-.1-.1-.22-.22-.34-.36-.54-.57-1.31-1.39-1.78-1.48-.13-.03-.33-.04-.56-.05-.67-.04-1.66-.11-1.73-.53-.05-.29.25-.73.54-1.16.35-.51.7-1.02.56-1.45-.07-.21-.2-.61-.37-1.04-.12-.31-.26-.64-.4-.94.1,0,.21-.01.31-.02.29-.03.4-.34.49-.61.04-.11.07-.2.08-.2.12-.09.18-.2.27-.35.05-.08.1-.18.19-.29.13-.18.26-.46.3-.76.03-.24.01-.5-.11-.72-.1-.19-.22-.42-.28-.61-.04-.13-.06-.24-.03-.26h0c.06-.04.56.03.98.08.25.04.48.07.62.07.19,0,.3-.07.3-.23,0-.1-.13-.39-.29-.74-.21-.46-.47-1.05-.54-1.35-.05-.21.08-.33.22-.45.14-.12.29-.25.36-.46.1-.26.05-.56-.06-.84-.1-.26-.25-.5-.37-.69-.16-.25-.49-.4-.8-.54-.21-.1-.4-.19-.44-.25-.05-.09-.08-.32-.09-.61-.01-.36,0-.79.04-1.1.04-.27.62-.71,1.1-1.08.36-.27.67-.51.76-.69h0s.2.12.47.26h0c.2.1.44.23.67.36.53.29,1.04.58,1.31.58.37,0,.47-.19.47-.44,0-.1-.02-.2-.04-.29h0c-.02-.08-.03-.14-.03-.15.01-.04.16.03.38.03.33,0,.73,0,1.05-.13.54-.19.44-.45.32-.76-.04-.1-.08-.21-.05-.29.08-.2.75-.26,1.18-.3.1,0,.19-.02.27-.03,0,0,.02.15.05.35.04.28.04.63.04.91,0,.22,0,.4.02.51.03.24.21.37.44.45.28.09.65.08.82.07.29-.03.47-.39.65-.75.08-.15.15-.3.22-.4.07-.09.79.08,1.44.24.44.11.85.21,1.09.21.13,0,.26.17.38.4.24.45.39,1.09.45,1.4.05.26.39.51.82.73.68.35,1.61.64,1.82.7.22.05.43-.08.62-.29.2-.23.38-.58.48-.82.03-.07.38-.16.82-.24.78-.14,1.8-.2,2.22-.2.48,0,.91.4,1.33.8.12.11.24.22.35.32.2.18.39.53.54.91.23.58.36,1.22.36,1.43,0,.24.15.56.35.89.19.3.44.63.65.89.17.22.23.61.24,1,.01.41-.03.82-.06,1.05-.02.17-.31.52-.63.9-.36.44-.76.92-.89,1.33-.15.48-.82,1.95-1.32,3.05-.23.51-.42.93-.52,1.17-.25.58.24,1.99.58,2.97.1.3.19.55.24.73.11.4.24.71.48,1,.23.28.56.54,1.06.83.58.35.37.71.26.91h0c-.06.1-.1.17-.1.26,0,.01-.36.26-.76.53"/>
  </g>
</svg>