<?xml version="1.0" encoding="UTF-8"?>
<svg id="Layer_2" data-name="Layer 2" xmlns="http://www.w3.org/2000/svg" viewBox="0 0 17.8 27">
  <defs>
    <style>
      .cls-1 {
        fill: #00b1b2;
        stroke-width: 0px;
      }
    </style>
  </defs>
  <g id="Layer_1-2" data-name="Layer 1">
    <path class="cls-1" d="m3.05,25.38c-.06-.64-.02-.95.05-1.38.08-.45.33-.51.15-.79-.18-.28-.39-.1-.53-.42-.15-.32-.52-.59-.26-.73.26-.14.28,0,.28-.28s-.07-.53-.22-.53-.07.12-.28.07c-.21-.06-.43-.08-.43.01s.18.27-.02.27-.36-.15-.6-.22c-.24-.07-.29,0-.39-.41-.09-.41,0-.74-.21-.93-.19-.17-.34-.15-.58-.24.19-.41.45-.96.59-1.2.16-.29.1-.64.04-.93-.03-.16-.06-.3-.03-.36.04-.08.3-.32.61-.56.37-.3.79-.6.93-.66.27-.11.35-.34.42-.56.01-.04.02-.07.04-.11.04-.09.16-.27.3-.43.16-.19.33-.36.4-.4.03-.02.21.06.39.14.2.09.38.17.49.12.16-.06.21-.27.25-.47.02-.07.03-.13.05-.19h0s.02.03.05.04h0c.13.04.32.16.49.26.1.06.2.12.28.16.12.06.34.37.54.65.23.32.43.6.58.54.08-.04.45-.39.76-.72.26-.27.49-.55.51-.64.04-.16-.01-.38-.06-.58-.01-.06-.03-.12-.04-.16h0c0-.05.08-.23.2-.45.22-.38.54-.85.68-1.06.18-.25.17-.63.16-.92,0-.14,0-.26.01-.3.02-.06.22-.19.43-.33.22-.14.45-.3.57-.44.18-.21.26-.56.32-.85.02-.1.04-.19.07-.26.03-.09.16-.15.29-.21.15-.07.31-.14.39-.28.1-.19.1-.44.1-.65,0-.08,0-.16,0-.21,0-.06.09-.15.18-.25.1-.12.21-.24.28-.4.04-.09.09-.24.15-.42.13-.4.31-.93.47-1.08.15-.14.28-.46.4-.75.11-.26.2-.5.27-.55.08-.06.21-.05.34-.04.13,0,.25.01.35-.04.1-.05.37-.32.56-.57.14-.19.25-.39.24-.52-.01-.11,0-.21.02-.32.02-.1.04-.22.04-.36,0-.31-.19-.44-.44-.61-.04-.03-.07-.05-.12-.09-.13-.09-.25-.2-.34-.29-.09-.09-.15-.17-.16-.22-.02-.05-.02-.35-.02-.65,0-.22,0-.44-.01-.6.26.01.8.05.91.11.07.04.08.14.1.23.01.06.02.12.04.18.04.09.17.2.31.33.17.14.35.31.39.41.04.11.05.3.05.48,0,.15,0,.29.03.41.02.12.1.34.19.56.09.25.19.51.22.67.03.15.03.4.02.65-.02.22-.05.45-.11.61-.12.36.06.82.24,1.25.03.07.05.13.07.18.09.24.32.48.54.71h0c.21.23.41.43.38.52-.02.06-.31.03-.63,0-.3-.03-.61-.07-.84-.01-.23.05-.35.08-.45.08-.09,0-.17-.02-.33-.07-.19-.05-.37-.09-.55-.09-.16,0-.32.02-.45.07-.13.06-.25.18-.34.33-.1.17-.15.36-.14.49,0,.12.11.29.25.46.13.17.31.35.49.53.15.15.42.39.7.64.39.34.82.7,1.04.87.16.13.44.52.69.92.28.44.52.88.52.98,0,.16-.08.34-.15.51-.02.05-.04.09-.06.13-.05.13-.27.39-.45.61-.08.1-.15.18-.2.26-.07.09-.19.35-.34.67-.25.53-.57,1.23-.77,1.4-.15.13-.31.16-.44.18-.18.03-.32.05-.37.24-.06.21.09.34.26.5.1.09.21.19.28.31h0c.09.15,0,.44-.06.69-.06.2-.11.39-.08.52.03.17.12.31.21.45.07.11.14.23.18.35.04.14.05.28.06.41,0,.13.02.26.05.39.05.16.3.5.52.79.15.2.28.37.28.38,0,.02-.02.09-.04.18-.04.16-.09.36-.05.48.04.1.75.75,1.4,1.34.47.43.9.82.99.92h0c.12.13.14.62.17,1.03.01.22.02.43.05.56-.04.03-.07.07-.1.11-.1.14-.08.39-.07.63.01.21.03.42-.03.48-.01.01-.09-.05-.18-.14-.06-.05-.11-.11-.17-.17-.13-.13-.25-.26-.36-.3-.18-.08-.97-.07-1.49-.07-.2,0-.36,0-.43,0h0c-.08,0-.23-.11-.4-.21-.22-.14-.45-.3-.64-.3-.08,0-.48,0-.91,0-.44,0-.91,0-1.17,0-.15,0-.31-.03-.45-.06-.22-.06-.4-.13-.45-.16-.05-.04-.3-.06-.61-.08-.41-.02-.96-.04-1.34-.05-.29,0-.76-.05-1.2-.09-.54-.05-1.04-.09-1.16-.07-.13.03-.22.1-.29.2-.04.07-.07.15-.09.24-.38.02-2.19.09-2.4.08-.13,0-.54-.27-.84-.46"/>
  </g>
</svg>