<?xml version="1.0" encoding="UTF-8"?>
<svg id="Layer_2" data-name="Layer 2" xmlns="http://www.w3.org/2000/svg" viewBox="0 0 25.11 27">
  <defs>
    <style>
      .cls-1 {
        fill: #00b1b2;
        stroke-width: 0px;
      }
    </style>
  </defs>
  <g id="Layer_1-2" data-name="Layer 1">
    <path class="cls-1" d="m20.48,0c.22.41.5.77.89,1.04,1.29.91,2.2.23,2.57,1.51.38,1.29,1.51,6.36,1.06,7.04-.46.68-4.45,4.56-8.43,5.7-3.98,1.14-5.57,1.63-5.23,2.5.34.87,1.51.83,4.13.46,2.05-.3,5.09-.2,6.66.08-1.41,1.97-3.49,4.96-5.19,7.79-1.36-.55-4.44-1.67-6.1-1.17-1.08.33-3.45.96-5.42,1.43-1.45.35-2.67.62-2.97.62-.27,0-.7-.2-1.07-.45h0c-.3-.2-.54-.38-.54-.4,0-.19-.08-.76-.2-1.54-.31-2.12-.86-5.97-.56-6.52.31-.58,3.48-5.32,6.15-9.32,1.58-2.37,2.99-4.48,3.55-5.35,2.05,1.43,3.15,1.97,5.12,1.62,1.46-.27,2.7-1.72,4.11-3.37.47-.54.95-1.12,1.46-1.66"/>
  </g>
</svg>