<?xml version="1.0" encoding="UTF-8"?>
<svg id="Layer_2" data-name="Layer 2" xmlns="http://www.w3.org/2000/svg" viewBox="0 0 31.91 27">
  <defs>
    <style>
      .cls-1 {
        fill: #00b1b2;
        stroke-width: 0px;
      }
    </style>
  </defs>
  <g id="Layer_1-2" data-name="Layer 1">
    <path class="cls-1" d="m31.41,22.63c-.07.35.31.7-.09.8-.39.1-.66.04-.83.22-.17.18-.18.37-.39.54-.21.17-.3-.06-.33.33-.03.39-.15.75.04.88.19.13.38.19.38.27s-.32.22-.18.35c.14.13.31.12.3.22-.01.11-.38.13,0,.36.38.24.49.37.76.4s.22-.22.32-.5c.1-.28.42-.63.36-.98-.05-.35-.16-.42.02-.67.18-.25.15-.86.07-1.12-.09-.26,0-.7-.05-.93-.07-.22-.12-.48-.37-.17M16.31,0c-.29.12-.41.04-.89.2-.49.17-1.04.29-1.21.46-.16.17-.05,1.42-.01,1.62.04.2.1.24.08.45-.02.21-.68.32-.93.44-.25.12-.52.24-1.05.44-.52.19-.7.21-.95.32-.25.11-.35.31-.4.46-.05.15.75.11.78.27.03.16-1.07.44-1.55.58-.48.14-.77,0-1.04-.07-.28-.07-.64-.03-1.03-.14-.39-.11-.17-.28-.37-.5-.2-.22.06-.32.04-.45-.02-.13-.22.13-.51.17-.29.04-.5-.3-.7-.18-.2.12.34.82.4,1.05.05.24.29.04.31.24.02.2.15,1.1.15,1.35s.28.17.34.35c.06.18-.33.06-.61.06s-.3-.16-.58-.16-.08.27-.22.37c-.14.11-.32-.1-.52-.15-.2-.05-.43.08-.85.24-.43.16-.27.06-.56-.24-.3-.3-.55-.83-.75-.81-.19.02-.83.4-1.07.5-.23.11-1.04.17-1.47.3-.43.13-.99.08-1.08.21-.09.13-.06.15-.03.33.03.18.21.03.37-.04.16-.07.59-.09.69.01.11.1-.01.12-.23.2s-.44.14-.5.31c-.06.17.11.13.36.1s.26.08.21.26c-.04.17-.24.06-.51.21-.27.15.24.32.44.57s.46-.19.65-.24,1.3.3,1.54.46c.24.17.4.68.6.8.2.12.01-.29,0-.36,0-.07.07-.21.27-.28.2-.07.37.14.52.3.15.16.46.13.72.36.26.22-.09.33,0,.39.1.06.77-.06.99-.07.21-.01.57.33.52.46-.05.14-.44-.07-.61-.1-.17-.03-.22.13-.2.24.02.11.42.14.51.21.09.06-.1.27-.19.38-.09.11-.43-.23-.53-.19-.1.05.26.36.34.53.08.17.62.59.67.74.06.15.34.17.72.31.38.14.71.16.84.27.13.11-.07.29-.19.48-.12.19-.03.3.03.57.06.27.19.19.18.42-.01.23-.2.1-.26.23-.05.13.62.45.72.57.11.13.4.33.51.51s.09.28.15.4c.06.13.21.17.24.33.03.16-.19.3-.26.34-.07.04-.21-.4-.28-.66-.07-.26-.22-.42-.33-.55-.11-.14-.48-.4-.57-.33-.09.07-.03.29.03.58.06.28.08.9.11,1.23.03.33-.1.38-.1.59s-.16.17-.43.36c-.27.19-.05.16-.15.97-.1.81-.3.95-.36,1.5-.06.55-.21.28-.33.44-.04.06-.12.09-.2.1h0c.07.13.14.23.19.23.05,0,.12,0,.2,0,.07,0,.14,0,.19,0,.21,0,.4.04.4.21,0,.05-.02.13-.04.21h0c-.02.09-.04.18-.05.26,0,.05,0,.09.04.09.17,0,.61.06.96.13.24.05.45.12.51.2.03.04.06.09.09.14.05.1.1.19.18.19h0s.08,0,.15-.01c.29-.03.8-.07.93.02.02.02.04.04.07.06.1.09.28.25.57.23.14,0,.28,0,.4,0,.19.01.35.02.38-.04.02-.04.03-.11.04-.18.02-.1.03-.2.07-.28.07-.14.2-.21.43-.09.14.07.34.15.54.22.37.14.73.27.8.43,0,0,.02-.02.06-.04.13-.05.33-.14.67-.13.47.01.72.27.92.47.07.07.13.14.19.17.1.06.28.12.46.17.21.05.43.08.57.08.15,0,.73-.12,1.18-.23-.06-.05-.11-.1-.16-.14-.17-.14-.07-.29-.2-.54-.13-.26-.3-.38-.14-.56.16-.17.2-.6.27-.7.06-.11.9-.46,1.32-.57.43-.11.67-.56.89-.42s.29.17.67.17.25-.28.53-.28.11.3.37.42c.27.12.13-.28.24-.37.12-.1.13.16.17.46.04.3.24.12.44.12s.18.11.21.39c.03.29.4.01.7.01s.31.17.49.38.7-.11,1.09-.11.35-.33.56-.47c.21-.14.45-.4.62-.63.17-.22.25-.1.44-.11.18,0,.26-.22.37-.29.03-.02.16-.07.35-.15.05-.19.12-.4.21-.51.07-.09.15-.21.21-.31.07-.12.13-.2.13-.2,0-.04-.5-.18-.93-.36-.3-.13-.56-.24-.63-.28-.13-.07-.17-.18-.17-.32,0-.11.04-.23.08-.33.03-.09.08-.14.12-.2.05-.07.1-.13.08-.26-.02-.14-.29-.48-.5-.74-.14-.18-.25-.32-.26-.39-.01-.11.13-.2.33-.28.15-.06.34-.11.48-.15.17-.05.16-.27.16-.36v-.03h0s-.12-.16-.25-.33c-.17-.21-.35-.44-.4-.57-.06-.18.15-.39.32-.56.08-.08.16-.12.16-.14,0-.02-.08-.08-.18-.15-.11-.09-.23-.18-.31-.29-.08-.11-.1-.24-.12-.36-.01-.09-.03-.18-.07-.24-.03-.04-.1-.04-.19-.04-.15.01-.31.07-.38.11-.09.05-.37.21-.57.3-.06.03-.12.05-.17.07-.09.03-.16.01-.2-.06h0s0-.01,0-.01h0s0,0,0,0h0s0-.1,0-.16c0-.09,0-.21-.02-.29-.06-.16.37-.62.68-.95.14-.15.26-.28.26-.28,0-.02.01-.06.02-.11.01-.11.03-.24.09-.36.05-.1.26-.23.47-.37.21-.13.42-.26.42-.29,0-.1.02-.26.09-.4.05-.11.12-.2.23-.24.12-.04.23,0,.36.03.12.04.25.08.37.03.14-.05.27-.13.38-.2.04-.02.07-.05.1-.07-.04-.14-.14-.47-.18-.62-.03-.11-.01-.31.02-.51.04-.21.11-.43.17-.52.05-.07.12-.24.18-.43.06-.18.12-.39.15-.53.06-.32.62-.98.82-1.21h0l.03-.04c.05-.05.06-.1.05-.13-.02-.05-.07-.1-.14-.15-.08-.06-.23-.04-.39-.02-.11.01-.23.03-.35.02-.3-.01-.5-.22-.67-.4-.02-.02-.04-.04-.07-.07-.08-.08-.23,0-.36.07-.04.02-.08.05-.13.07-.21.1-.31.08-.64,0l-.12-.03c-.29-.07-.37-.19-.45-.34-.04-.07-.08-.14-.17-.2-.11-.09-.36-.18-.61-.25-.25-.08-.51-.13-.62-.16-.09-.02-.24-.02-.42,0-.25.02-.54.06-.72.1-.25.05-.33-.11-.36-.28-.01-.05-.01-.1-.02-.14,0-.05,0-.08,0-.08-.03-.03-.23-.13-.47-.24-.23-.1-.49-.21-.66-.27-.33-.1-.26-.51-.19-.78-.07.05-.14.11-.21.17-.11.09-.22.17-.28.21-.19.11-.45.03-.66-.05h-.03c-.24-.09-.12-.45-.04-.7.03-.08.05-.15.05-.15,0-.03-.02-.08-.05-.12-.03-.06-.08-.12-.12-.17-.02-.02-.32.06-.56.13-.08.02-.16.05-.23.06-.18.05-.26-.03-.29-.15-.02-.07,0-.15,0-.23,0-.06.01-.11,0-.14,0-.01-.16,0-.31.02-.09,0-.18.02-.25.01-.23,0-.34-.39-.41-.67-.03-.12-.06-.21-.07-.23-.01-.01-.11,0-.21.01-.13.02-.27.06-.32.08-.09.02-.22-.06-.35-.18-.16-.15-.33-.37-.38-.45-.04-.07-.08-.25-.12-.41"/>
  </g>
</svg>