<?xml version="1.0" encoding="UTF-8"?>
<svg id="Layer_2" data-name="Layer 2" xmlns="http://www.w3.org/2000/svg" viewBox="0 0 24.65 27">
  <defs>
    <style>
      .cls-1 {
        fill: #00b1b2;
        stroke-width: 0px;
      }
    </style>
  </defs>
  <g id="Layer_1-2" data-name="Layer 1">
    <path class="cls-1" d="m9.97,27c-.44-.42-.83-.81-1.12-1.11-.99-1.03-3.76-3.59-3.63-3.82.13-.23,1.03-.32.76-.71-.27-.4-2.59-.05-2.64-.85-.04-.8.36-1.51-.1-1.74-.46-.23-1.24-.23-1.15-.59.08-.36.23-.59.54-.59s.61.17.8-.21c.19-.38-.74-.34-.9-.65-.17-.32.08-.82-.27-1.05-.36-.23-.52.57-.88.4C1.01,15.9-.04,14.23,0,13.66c.04-.57.65.63,1.15.29s.89-1.63.91-2.26c.02-.63.02-1.7.06-2.25.04-.54.57.59.95.67.38.08.23-.5.65-.21.42.29.52.73.75.4.23-.33.04-.71.46-.73.42-.02,1.15.06.94-.25-.21-.32-1.32-.38-1.7-.38s-.84.27-1.13-.04c-.29-.32-.73-.48-.65-.84.08-.36.15-.46.44-.44.29.02.48.73.8.4.31-.34-.44-1.76-.27-1.97s.4.11.61-.29h0c.27.04.57.08.82.13.24.04.85.08,1.55.11,1.01.05,2.19.07,2.64.07.25,0,.53.03.81.06.63.07,1.21.14,1.35-.22.12-.27,0-2.82-.05-4.29-.02-.49-.04-.87-.04-.98,0-.18.04-.33.11-.45.06-.09.15-.16.27-.19.17-.04,1.07.04,2.03.13.83.07,1.71.15,2.25.16.68.02,1.69.05,2.46.09.51.03.89.06.92.08.06.04.23.12.45.19-.16.28-.42.75-.67,1.29-.21.44-.34.79-.35,1.21-.01.41.09.86.35,1.5.25.62.63.67,1.07.49.24-.1.49-.27.74-.44.34-.23.69-.48.96-.49.42-.02.76,0,1.04.08.28.08.51.2.74.37.16.11.3.43.41.78.18.56.27,1.18.24,1.32-.01.07-.14.17-.31.3-.17.13-.37.28-.56.5-.42.48-1.34,3.71-1.34,3.72l-.04.15.13.08s2.35,1.42,2.69,1.61c.03.02-.12.39-.27.77-.14.35-.28.69-.28.94,0,.36.15.81.29,1.25h0c.07.21.14.43.19.62.1.39-.64,2.38-1.05,3.46-.14.36-.23.62-.25.7,0,0-.05-.02-.11-.04-.05-.01-.11-.03-.16-.05-.12-.04-.24-.08-.35-.08-.02,0-.31-.47-.56-.89-.24-.39-.45-.73-.59-.79-.32-.14-.78.63-1.1,1.16-.05.09-.11.18-.16.26-.12.19-.77.07-1.34-.05-.22-.04-.43-.08-.61-.1-.37-.04-.6-.87-.75-1.44-.06-.21-.11-.39-.16-.51-.22-.5-.5-.46-1.03-.37-.08.01-.16.02-.26.04-.7.09-.81.98-.89,1.61,0,.06-.01.1-.03.19-.03.2-.11.23-.24.28-.17.06-.38.15-.64.38-.2.18-.6,0-1-.18-.41-.19-.82-.38-1.18-.25-.53.17-.39.67-.24,1.22.1.35.2.73.09.96-.23.48-.07.69.24.83.09.04.18.07.27.1.13.04.27.09.37.16.06.04.06.06.05.07-.02.03-.05.06-.07.09-.09.11-.2.24-.28.43-.18.44.22.72.61.98.17.11.33.22.38.31h0c.05.09-.03.19-.15.35-.12.15-.26.34-.39.61-.02.05-.06.05-.09.04-.14-.06-.32-.24-.5-.41-.22-.21-.43-.41-.62-.47-.51-.16-.98.31-1.26.6h0s-.06.06-.06.06c-.17.17-.33.55-.49,1.03"/>
  </g>
</svg>