<?xml version="1.0" encoding="UTF-8"?>
<svg id="Layer_2" data-name="Layer 2" xmlns="http://www.w3.org/2000/svg" viewBox="0 0 35.89 27">
  <defs>
    <style>
      .cls-1 {
        fill: #00b1b2;
        stroke-width: 0px;
      }
    </style>
  </defs>
  <g id="Layer_1-2" data-name="Layer 1">
    <path class="cls-1" d="m13.71,14.67c-.25.31.65.89,1.95,1.33,1.29.43,1.14.59,2.34,1.33,1.2.74,2.56,1.51,2.84.77.28-.74-.8-1.82-2.47-2.62-1.67-.8-1.57-2.16-4.66-.8m6.22-12.36c-2.34.93-3.95.19-5,1.17-1.05.99-2.59,1.11-.74,1.73,1.85.62,1.48.37,3.58.62,2.1.25,3.27.43,4.01,1.6.74,1.17,1.24,1.91.74,2.78-.49.86-.99,1.05-.06,2.28.93,1.23-2.78,1.98,1.54,3.95,4.32,1.98,2.78.86,3.09,1.98.31,1.11.92,1.91-.31,1.97-1.24.06-1.36-.55-2.72.25-1.36.8-.8,1.36-3.15,1.05-2.35-.31-5.99-1.3-7.1-.99s-1.48.86-3.15.25c-1.67-.62-4.94-2.59-6.42-2.59s-3.39.68-3.58,1.3c-.18.62-1.73,3.09.62,3.27,2.35.18,3.64.19,4.26,1.11.62.93.55,3.58,2.04,2.84,1.48-.74.49-2.71,2.96-2.84,2.47-.12,3.64-.43,6.54.62,2.9,1.05,2.04,1.54,4.88.92,2.84-.62,5.06-1.79,7.78-1.23,2.72.56,3.83-.31,4.63,1.61.05.12.1.25.14.36.28-.78.49-1.46.49-1.75,0-.28-.64-1.04-1.34-1.87-.96-1.14-2-2.39-2.05-3.42-.05-1.1.61-1.4,1.46-1.44.29-.01.58,0,.85.03.28.02.44.47.48.26.05-.24-.08-.68-.22-1.16h0c-.18-.62-.37-1.28-.33-1.93.06-.85.59-1.22,1.16-1.62.33-.23.68-.48.8-.84.2-.6.06-.72-.28-1-.1-.08-.21-.18-.32-.28-.89-.8-.53-1.81-.11-2.99.11-.31.23-.64.31-.95.17-.62-.21-1.81-.69-3.1-.36.26-.85.4-1.58.28-2.35-.37-2.78-1.05-3.83-.68-1.05.37-1.54,1.36-2.72.43-1.17-.93-2.65-1.67-2.72-2.35-.06-.68-1.29-2.16-2.04-1.91-.74.25-.25,1.67-.62,1.91-.37.25-.86.12-1.3.37"/>
  </g>
</svg>