<?xml version="1.0" encoding="UTF-8"?>
<svg id="Layer_2" data-name="Layer 2" xmlns="http://www.w3.org/2000/svg" viewBox="0 0 23.49 27">
  <defs>
    <style>
      .cls-1 {
        fill: #00b1b2;
        stroke-width: 0px;
      }
    </style>
  </defs>
  <g id="Layer_1-2" data-name="Layer 1">
    <path class="cls-1" d="m13.51.22c.19.61.32,1.17.32,1.68,0,1.63-1.34,1.63-4.16,3.71-2.82,2.08-.41,3.23-.93,5.98-.52,2.75-.37,1.34-2.3,2.67-1.93,1.34-.67,1.71-1.56,3.56-.89,1.86-2.6,4.98-4.16,7.72-.37.65-.59,1.11-.73,1.46.98-.03,2.3-.1,3.6-.18,2.13-.14,4.12-.28,4.16-.31l.04.05c0-.27-.01-.48-.01-.6,0-1.07,1.61-2.1,3.09-3.04h0c.94-.6,1.82-1.16,1.84-1.27.07-.35-.15-.91-.36-1.43-.18-.45-.35-.88-.4-1.31-.07-.64.21-1.47.82-2.2.48-.57,1.17-1.1,2.06-1.45,1.22-.47,2.64.01,3.92.45.56.19,1.09.37,1.47.43-.15-.42-.49-1.01-.82-1.58-.38-.66-.74-1.29-.86-1.76-.3-1.2,1.34-2.25,2.94-3.26.81-.52,1.61-1.02,1.97-1.41.06-.06-.13-.27-.43-.55-.48-.44-1.21-.93-1.92-1.4-.62-.41-1.24-.82-1.74-1.24-1.21-1-1.05-1.72-.38-2.53h0c.15-.18.33-.36.53-.55.43-.42.95-.93,1.2-1.63.03-.09-.1.1-.2.07-1.3-.45-4.58-.26-7.02-.06"/>
  </g>
</svg>