<?xml version="1.0" encoding="UTF-8"?>
<svg id="Layer_2" data-name="Layer 2" xmlns="http://www.w3.org/2000/svg" viewBox="0 0 21.17 27">
  <defs>
    <style>
      .cls-1 {
        fill: #00b1b2;
        stroke-width: 0px;
      }
    </style>
  </defs>
  <g id="Layer_1-2" data-name="Layer 1">
    <path class="cls-1" d="m4.48,24.93c1.08.02,2.03.11,2.77.27,1.4.32,4.18.96,7.21,1.79.44-.4.93-.79,1.41-1.19,1.56-1.27,3.21-2.62,3.3-4.08.09-1.53.74-2.67,1.35-3.74.62-1.09,1.18-2.07-.26-3.35-1.23-1.1-2.66-1.72-3.98-2.29-2.63-1.13-4.94-2.13-5.97-5.81h0c-.8-2.86-1.34-5.13-1.65-6.55l-.33.07c-1.78.33-3.59.67-3.79.96-.17.23-.33.44-.53.69C2.54,3.59-1.23,8.39.4,11.64c.96,1.91,1.61,2.82,2.08,3.48.77,1.07,1.16,1.62,1.55,3.7.38,2.03.45,4.49.45,6.1"/>
  </g>
</svg>