<?xml version="1.0" encoding="UTF-8"?>
<svg id="Layer_2" data-name="Layer 2" xmlns="http://www.w3.org/2000/svg" viewBox="0 0 35.53 27">
  <defs>
    <style>
      .cls-1 {
        fill: #00b1b2;
        stroke-width: 0px;
      }
    </style>
  </defs>
  <g id="Layer_1-2" data-name="Layer 1">
    <path class="cls-1" d="m0,27c.07-.16.1-.27.28-.48.28-.31.79-.47,1.53-.62.74-.16,1.38-.1,1.82-.38.44-.28,1.41-.9,2.08-1.53.67-.62,1.86-.99,2.26-1.57.4-.58,1.09-1.6,1.28-1.75.19-.14.28,0,.45-.58.17-.58.77-1.11.48-1.64s-.57-.5-.6-.92c-.03-.43.07-.58.04-1.08-.03-.5-.5-.94-.06-1.46.44-.53.57-.71.89-1.14.33-.43.5-.15.53-1.07.03-.92-.46-.74.2-1.39.65-.65.72-.67,1.22-1.09.5-.43.34-.99,1.04-1.36.7-.37,1.28-.52,1.8-.75s1.67-.7,2.38-1.2c.71-.5,1.08-.89,1.46-1.57.38-.68.65-1.33,1.05-2.17.4-.84.8-1.98.9-2.32.11-.33-.08-.39.31-.52.38-.13.59-.05,1.09-.22.5-.17.7-.22.8-.14.11.08.11.19.06.3-.06.11-.17.29-.13.48.04.19.13.6.49.81.36.21,1.15.45,1.38.7.23.26,1.24.24,1.65.19.41-.05,1.37-.16,1.87-.38.5-.23.98-.43,1.21-.45.23-.03.26.47.34.73.08.26-.11.5.16.45.28-.04.03-.23.31-.38.28-.15.6.11,1.15.2.15.02.31.03.48.02.11.09.22.19.34.28.49.4.99.81.97.86-.03.07-.09.13-.14.18-.14.13-.26.24-.15.53.06.15.14.29.22.43.08.15.16.27.16.35,0,.09.01.29.02.5,0,.16,0,.4,0,.54,0,.07-.06.21-.12.36-.11.26-.23.54-.17.75.05.18.27.6.49,1.03.15.3.31.59.4.8.1.24.16.53.21.79.06.3.11.56.23.68.08.07.24.15.4.22.23.11.48.23.48.27s-.13.17-.26.29c-.19.18-.38.37-.37.56,0,.12.02.29.03.44,0,.14,0,.25,0,.28-.02.06-.79-.18-1.56-.3-.7-.11-1.36-.21-1.48-.19-.03,0-.1.01-.19.03-.45.06-1.37.18-1.49.42-.06.11-.21.33-.36.52-.12.15-.24.27-.31.31-.09.05-.26.11-.45.16-.19.05-.4.09-.56.11-.09,0-.22-.05-.37-.1-.34-.14-.71-.29-.94.1-.22.37-.15.53-.08.68.02.04.04.08.04.11,0,.18.13.3.25.41.07.06.13.12.14.15,0,.03-.05.11-.11.21-.13.21-.27.44-.07.6.07.06.16.1.26.15.14.07.3.16.29.18,0,.01-.64.27-1.39.56-1.09.43-2.39.94-2.56,1.23-.24.38-.49.78-.54.87-.12.1-.81.64-1.2.72-.29.06-1.09.11-1.69.16-.33.02-.59.04-.69.06-.26.03-.47.48-.63.79-.06.12-.11.22-.13.24-.02.02-.26,0-.53-.03-.2-.02-.41-.04-.6-.04-.21,0-.57.1-.94.23h0c-.52.18-1.07.42-1.25.53-.19.11-1.22.79-1.98,1.33-.47.34-.85.64-.9.76-.06.14-.09,1.14-.08,2.14,0,.37,0,.75.02,1.08H0Z"/>
  </g>
</svg>