<?xml version="1.0" encoding="UTF-8"?>
<svg id="Layer_2" data-name="Layer 2" xmlns="http://www.w3.org/2000/svg" viewBox="0 0 13.89 27">
  <defs>
    <style>
      .cls-1 {
        fill: #00b1b2;
        stroke-width: 0px;
      }
    </style>
  </defs>
  <g id="Layer_1-2" data-name="Layer 1">
    <path class="cls-1" d="m2.29,8.4c-.04.62-.06,1.04-.29,1.46-.24.42-.66.75-.66,1s.06.38.2.91c.15.53.24.78.27,1.39.04.6.11.82.35,1.09.24.27.38.38.27.69-.11.31-.12.78-.34,1.18-.22.4-.58.62-.75.93s0,.58-.13.91c-.13.33-.57.2-.64.51-.07.31,0,.42-.2.82-.2.4-.38.46-.38.89s.22.64.22,1.04.26.68.46.99c.2.31.47.62.33.75-.15.13-.14.34-.14.73s-.02.64.03.8c.04.16.29,1.09.63,1.35.35.26.59.26.98.48.38.23.67.51.98.59.31.08.5.13.77.04.26-.08.42-.2.68-.34.26-.14.46-.42.87-.47.41-.05.98.07,1.24-.21.26-.28.37-.32.51-.83.15-.51.59-.46.59-1.21s.22-1.35.46-1.88c.24-.53.58-1.6.75-2.21.16-.6,1.07-3.51,1.14-3.86.07-.35.69-2.11.8-2.79.11-.68.64-1.97.64-2.22s-.46-.27-.07-.64c.38-.36.82-.58.74-.78s-.27-.15-.18-.38c.09-.23.2-.67.15-.77-.05-.1-.19-.12-.24-.38-.05-.26.03-.63.03-.7s-.14-.37-.03-.45c.11-.07.37-.22.44-.14.06.08.18.64.26.78.07.15.17.26.3.23.14-.04.25-.13.32-.38.07-.26.26-.68.26-.84s-.19-1.15-.29-1.37c-.1-.22-.45-1.09-.45-1.52s-.25-1.35-.34-1.47c-.09-.12-.69-.6-.75-.76-.05-.15-.17-.36-.32-.45-.15-.09-.46.03-.39-.13.07-.15.35-.19.35-.33s.06-.52-.14-.47c-.2.05-.53.35-.63.53-.1.18-.38.26-.39.37,0,.12.04.44.2.57.16.13.26.27.22.38-.04.11-.19.8-.33.86-.14.05-.5-.06-.52.09-.02.15.1.26-.07.32-.17.05-.33.04-.35.12-.02.08.03.26-.05.3-.08.05-.13-.08-.26-.24-.14-.15-.26-.29-.36-.18-.11.11-.03.42.02.63.04.21.06.73,0,.76-.05.03-.28-.17-.37-.05s-.19.41-.08.47c.11.06.47.07.54.15s.12.35-.02.42c-.14.07-.36-.17-.44-.16-.08.02-.25.21-.34.34-.09.13-.15.3-.23.32-.08.02.05-.61-.04-.67-.09-.05-.33-.16-.37-.05-.04.11-.07.61-.16.87-.09.26.06.47.06.63,0,.15-.5.32-.56.29-.06-.03.13-.3.04-.45-.09-.15-.27-.19-.38-.13-.11.06-.73.46-.75.64s0,.27.13.38c.12.11.24.34.1.37-.14.04-.66.15-.62,0,.04-.15.06-.58-.06-.53-.13.06-.38.26-.57.19-.18-.06-.22-.14-.52.04-.3.17-.46.47-.54.46-.08-.02.03-.37-.17-.37-.2,0-.37.47-.75.52-.37.04-.61-.15-.66.17"/>
  </g>
</svg>